<svg xmlns="http://www.w3.org/2000/svg" viewBox="0 0 166.32 80.02"><defs><style>.cls-1{fill:#887f79;}.cls-2{fill:none;}</style></defs><title>Asset 22</title><g id="Layer_2" data-name="Layer 2"><g id="Layer_1-2" data-name="Layer 1"><polygon class="cls-1" points="61.33 24.6 65.12 18.68 65.12 18.68 66.14 17.09 61.97 17.09 58.35 24.6 60.31 24.6 61.33 24.6"/><polygon class="cls-1" points="61.83 24.92 61.66 25.2 61.33 25.2 60.02 25.2 59.54 26.19 62.52 26.19 67.33 18.68 65.83 18.68 61.83 24.92"/><path class="cls-1" d="M55.24,39.12a31.67,31.67,0,0,1,3.63-5.44l.53-2.48A26.72,26.72,0,0,0,54,38.83Z"/><path class="cls-1" d="M44.54,47c.22-.52.46-1,.7-1.58-.09-.44-.32-.84-.47-.84a2.64,2.64,0,0,1,1.61-1.48c.25-.49.5-1,.77-1.47-1.49.2-2.41.61-2.85,1.25a2.67,2.67,0,0,1,.39,1.34c0,1.25-1.19,2.15-2.82,2.15a3.83,3.83,0,0,1-1-.13,2.37,2.37,0,0,0,2.18,1.12A3,3,0,0,0,44.54,47Z"/><path class="cls-1" d="M60.3,56.81l6-28h0l.26-1.19A8.87,8.87,0,0,0,63.4,27c-4.65,0-9.81,5.37-13.83,11.72-.83-.08-1.51-.12-2.06-.12-4.69,0-8.1,2.19-8.1,4.89a2.1,2.1,0,0,0,1.23,2.05h0a2.45,2.45,0,0,0,.56.18h0l.25,0h.37c1.23,0,2.22-.59,2.22-1.55,0-.55-.32-1.23-.51-1.23.51-1.35,2.18-1.91,4.64-2.06-.17.3-.34.6-.5.91l0,.06c-3.16,5.79-5.3,11.81-5.3,15.19,0,1.95.71,3,1.68,3.56l.06,0,.15.08.08,0,.14.06.09,0,.13,0,.1,0,.13,0,.1,0,.14,0,.09,0,.16,0,.08,0,.23,0h0l.24,0h1.72a3.63,3.63,0,0,1-.56-2.22c0-4.13,2.19-11.68,5.17-18.15a15.2,15.2,0,0,1,5.32,1.43l-.22,1h0l-2.84,13.4H60.3Zm-6.77-18.3.12-.23.27-.51.13-.24.3-.55a1,1,0,0,0,.1-.17l.38-.66c.05-.07.09-.15.14-.23l.26-.43a2.26,2.26,0,0,0,.16-.26l.26-.39.15-.24c.13-.19.25-.38.38-.56a1.77,1.77,0,0,1,.16-.22l.24-.35c.07-.08.13-.17.19-.25l.22-.29.19-.24.27-.33.27-.31.24-.28.2-.2.21-.22.2-.2a8.13,8.13,0,0,1,1.73-1.31l0,.13h0l-.61,2.86h0L58,40.65a24.09,24.09,0,0,0-3.88-1.18l-.16,0-.81-.17C53.27,39,53.4,38.76,53.53,38.51Z"/><path class="cls-1" d="M66.87,28.89l-6,28.05-.1.47H56l-.21,1h5.72l6.24-29.23A7.22,7.22,0,0,0,66.87,28.89Z"/><path class="cls-1" d="M57,42.75a14.42,14.42,0,0,0-4.27-1.15C49.77,48,47.75,55.19,47.75,59.12A3.11,3.11,0,0,0,48.2,61l.17.25a4.68,4.68,0,0,1,0-.55c0-4.13,2.19-11.68,5.17-18.16a15.46,15.46,0,0,1,3.34.67Z"/><path class="cls-1" d="M47.71,61.94a9.1,9.1,0,0,1-3.37-.47c1.07,1.42,3.07,1.46,4.56,1.46a3,3,0,0,1-.43-1Z"/><path class="cls-1" d="M76.07,39.14h-1.9L71.73,50.58h0a5.52,5.52,0,0,0-.14,1.14c0,.57.1.8.65.86,0-.17.06-.35.11-.54l2.54-11.92h2.38l.2-1H76.07Z"/><path class="cls-1" d="M103.58,50.59h0a4.91,4.91,0,0,0-.14,1.14c0,.71.23,1,.62,1.07,0-.22.07-.47.13-.75l2.86-13.51h-.92l-2.55,12Z"/><path class="cls-1" d="M124.22,47.44a21.1,21.1,0,0,0-.8,4.09c0,.65.16.95.63,1,.24-2.39,1.87-6.72,1.87-9.7a5.09,5.09,0,0,0-.68-2.74,7.08,7.08,0,0,1,.08,1.15A27.43,27.43,0,0,1,124.22,47.44Z"/><path class="cls-1" d="M119,56.43l.08,0a2,2,0,0,0,.32.18l.07,0,.3.12.1,0,.4.11h0l.4.06h.12l.49,0h.46l.25,0h.11l.28-.06h.07l.31-.09.12,0,.2-.07.13-.06.19-.09.15-.08.22-.14.14-.1.13-.1.14-.12.12-.1.24-.26.09-.1.12-.17.09-.12.12-.18c0-.05,0-.09.07-.14a5.36,5.36,0,0,0,.62-2,2.42,2.42,0,0,1-1.31.24,2.6,2.6,0,0,1-.4,0l-.28-.07h0l-.23-.1,0,0a1.33,1.33,0,0,1-.19-.14v0a1.28,1.28,0,0,1-.27-.4v0a2,2,0,0,1-.07-.23v0a1.87,1.87,0,0,1,0-.25v0a2.64,2.64,0,0,1,0-.29c0-2.22,1.91-7,1.91-10.25,0-.2,0-.39,0-.58a.2.2,0,0,1,0-.07l-.06-.48v0a4.85,4.85,0,0,0-.25-.93h0a4,4,0,0,0-4.06-2.41,5.84,5.84,0,0,0-4.4,2,3.07,3.07,0,0,0-.25.26l.1-.48h0l.34-1.59h-5.72l-2.71,12.78c-.6,2-1.67,3.71-3.21,3.71a2.25,2.25,0,0,1-.61-.08l-.21-.08-.16-.08-.1-.07-.12-.1-.08-.09-.09-.13L103,52.7a.77.77,0,0,1-.07-.16s0-.08,0-.12,0-.14-.05-.21a.43.43,0,0,0,0-.11c0-.12,0-.24,0-.37a5.48,5.48,0,0,1,.16-1.27L105.86,37h-5.72l-.37,1.77h0l-.07.34v-.38h0c0-1.1-1-1.93-3.21-1.93-6.92,0-10.21,8.55-10.21,13.91v.28a3.76,3.76,0,0,1-3.06,2.26l-.43,0h0a2.42,2.42,0,0,1-.53-.13h0a.72.72,0,0,1-.19-.11h0a1.07,1.07,0,0,1-.16-.14h0l-.12-.18h0a1.43,1.43,0,0,1-.08-.22v0a1.84,1.84,0,0,1,0-.25v0a2.66,2.66,0,0,1,0-.3,5.48,5.48,0,0,1,.16-1.27l2.54-11.92h2.39L87,37H84.61L86,30.68l-5.88.79L78.89,37H77.58l-.32,1.59h1.31L76.19,49.7h0c-.6,2-2,3.5-3.58,3.5l-.43,0h0a2.32,2.32,0,0,1-.52-.13h0a.78.78,0,0,1-.2-.11h0a1.07,1.07,0,0,1-.16-.14h0a.83.83,0,0,1-.13-.18h0a1.45,1.45,0,0,1-.09-.22v0a1.87,1.87,0,0,1,0-.25v0a2.66,2.66,0,0,1,0-.3,5.48,5.48,0,0,1,.16-1.27l2.55-11.92h2.38L76.39,37H74l1.35-6.27-5.87.79L68.28,37H67l-.31,1.59H68L65.58,49.7a13,13,0,0,0-.31,2.59c0,2.43,1,3.85,2.45,4.44l0,0,.24.08.13,0,.21.05.18,0,.19,0L69,57l.15,0h.7l.27,0h0l.28,0h0l.3,0h0l.33-.06h0l.33-.08h0l.33-.1,0,0,.33-.12,0,0,.34-.14,0,0L73,56.2l0,0,.37-.21h0l.36-.24,0,0,.35-.26.06,0,.34-.29.06-.05.34-.33,0,0,.36-.39h0a8.68,8.68,0,0,0,.62-.79c0,.08,0,.15.05.23h0a4.51,4.51,0,0,0,.78,1.83h0a4,4,0,0,0,.68.69h0a4.05,4.05,0,0,0,1.21.61h0l.33.08h0l.3,0,.14,0,.22,0h.68l.27,0h0L81,57h0l.31,0h0l.7-.15h0l.36-.11h0l.37-.14h0a7.92,7.92,0,0,0,3.12-2.25h0a9.69,9.69,0,0,0,.7-.9,5.69,5.69,0,0,0,.71,1.53h0c.08.12.17.24.26.35h0a6.37,6.37,0,0,0,.57.59h0a4.56,4.56,0,0,0,1.57.89h0l.35.11.11,0,.31.06.13,0L91,57h.55a3.93,3.93,0,0,0,.49,0h.15l.31,0,.18,0,.27-.06.18,0,.25-.08.17-.05.26-.1.15-.06.31-.15.17-.09.25-.14.18-.11.17-.12.18-.13.15-.11.18-.14.12-.11.2-.17.08-.07a11.21,11.21,0,0,0,1.52-1.82,5.52,5.52,0,0,0,.29,1.3v0c0,.13.11.26.17.39l0,.09a3.26,3.26,0,0,0,1,1.15h0a3.64,3.64,0,0,0,.7.38l.11,0,.18.06.14,0,.17,0,.19,0,.15,0,.23,0h1.33l.2,0h.09l.22,0,.08,0,.24,0,.07,0,.26-.07.06,0,.26-.08.06,0,.28-.11,0,0,.29-.14,0,0c.1,0,.2-.1.3-.15l0,0L105,56l0,0a2.82,2.82,0,0,0,.31-.21l0,0a3.24,3.24,0,0,0,.31-.24l0,0a4.15,4.15,0,0,0,.32-.27h0l.33-.32h0l.27-.28,0,.18h0l-.43,2h5.72l2.7-12.75c.6-2,1.67-3.65,3.1-3.65l.27,0h0a.88.88,0,0,1,.23.07h0a.82.82,0,0,1,.2.12h0a1,1,0,0,1,.18.17h0a1.19,1.19,0,0,1,.16.23h0a1.11,1.11,0,0,1,.12.27h0a2.81,2.81,0,0,1,.08.31v0c0,.11,0,.23,0,.35h0c0,.14,0,.28,0,.43,0,2.54-1.79,7.42-1.79,10.12a4.53,4.53,0,0,0,1.56,3.79h0A.41.41,0,0,0,119,56.43ZM97.44,49.7c-.48,2.31-2.15,3.5-3.3,3.5a2.35,2.35,0,0,1-.67-.07l-.23-.08h0A1,1,0,0,1,93,52.9h0a1.94,1.94,0,0,1-.21-.2l0,0a.76.76,0,0,0-.08-.11v0l-.09-.14,0,0-.06-.13,0,0L92.41,52v0l-.06-.17v0a1.69,1.69,0,0,1,0-.24v0a1.85,1.85,0,0,1,0-.23v-.07l0-.29v0a2.46,2.46,0,0,1,0-.28V50.1c0-3.73,2.18-10.88,5.56-10.88a1.54,1.54,0,0,1,1.63,1.51Z"/><path class="cls-1" d="M97.72,39.81c-1.22,0-2.5,1.35-3.5,3.68a18.58,18.58,0,0,0-1.47,6.61c0,1.47.28,2.08.63,2.33,0-.23,0-.47,0-.74,0-3.66,2.1-10.61,5.37-10.87l0-.14A1,1,0,0,0,97.72,39.81Z"/><polygon class="cls-1" points="86.27 36.36 87.15 32.27 86.2 32.4 85.35 36.36 86.27 36.36"/><path class="cls-1" d="M117.7,41c-1.15,0-2,1.65-2.52,3.2l-2.7,12.73-.1.47h-4.8l-.21,1h5.72l2.7-12.75c.54-1.8,1.48-3.34,2.72-3.61C118.41,41,117.92,41,117.7,41Z"/><path class="cls-1" d="M105.44,57.41l.16-.72.08-.41a7.23,7.23,0,0,1-4.31,1.37,5.34,5.34,0,0,1-1.84-.31,3.7,3.7,0,0,0,3,1.3,6.69,6.69,0,0,0,3.93-1.23h-1Z"/><path class="cls-1" d="M84.77,39.14,82.33,50.58h0a4.91,4.91,0,0,0-.14,1.14c0,.57.09.8.65.86,0-.17.06-.35.1-.54l2.54-11.92h2.39l.31-1.59h-.9l0,.12-.1.48H84.77Z"/><path class="cls-1" d="M91.56,57.65A6,6,0,0,1,89,57.12a5,5,0,0,0,3.74,1.52,6.6,6.6,0,0,0,5.09-2.56,4.2,4.2,0,0,1-.67-1.28A7.2,7.2,0,0,1,91.56,57.65Z"/><path class="cls-1" d="M125.85,54.78a4.73,4.73,0,0,1-4.5,2.87,5.2,5.2,0,0,1-1.91-.34,3.7,3.7,0,0,0,3.1,1.33,4.23,4.23,0,0,0,4.37-4.09A2,2,0,0,1,125.85,54.78Z"/><polygon class="cls-1" points="75.67 36.36 76.55 32.27 75.59 32.4 74.74 36.36 75.67 36.36"/><path class="cls-1" d="M69.51,57.65a5.28,5.28,0,0,1-2-.38,4,4,0,0,0,3.23,1.37A7.51,7.51,0,0,0,76.4,56a4.71,4.71,0,0,1-.71-1.24A8.09,8.09,0,0,1,69.51,57.65Z"/><path class="cls-1" d="M80.12,57.65a5.44,5.44,0,0,1-2-.37,4,4,0,0,0,3.22,1.36,7.53,7.53,0,0,0,5.92-2.88,5.88,5.88,0,0,1-.76-1.17A8.12,8.12,0,0,1,80.12,57.65Z"/><rect class="cls-2" width="166.32" height="80.02"/></g></g></svg>