<svg xmlns="http://www.w3.org/2000/svg" viewBox="0 0 166.32 80.02"><defs><style>.cls-1{fill:#887f79;}.cls-2{fill:none;}</style></defs><title>Asset 15</title><g id="Layer_2" data-name="Layer 2"><g id="Layer_1-2" data-name="Layer 1"><path class="cls-1" d="M22.35,46.49l.93-1.59a.59.59,0,0,1,.87-.18c.12.08,2.2,1.59,3.86,1.59a2.14,2.14,0,0,0,2.33-2c0-1.31-1.1-2.21-3.25-3.08-2.41-1-4.81-2.51-4.81-5.53,0-2.28,1.69-4.91,5.76-4.91a9,9,0,0,1,5.12,1.71.65.65,0,0,1,.15.85l-1,1.46a.68.68,0,0,1-.9.3,8.51,8.51,0,0,0-3.56-1.4,2,2,0,0,0-2.25,1.79c0,1.2.95,2,3,2.87,2.48,1,5.35,2.48,5.35,5.78,0,2.64-2.28,5.07-5.89,5.07a8.22,8.22,0,0,1-5.63-2C22.25,47,22.12,46.9,22.35,46.49Z"/><path class="cls-1" d="M35,48.33l8-17.23a.48.48,0,0,1,.44-.28h.25a.44.44,0,0,1,.44.28l7.88,17.23a.45.45,0,0,1-.43.66H49.26a.73.73,0,0,1-.74-.51l-1.26-2.76H39.61l-1.25,2.76a.78.78,0,0,1-.75.51H35.38A.45.45,0,0,1,35,48.33ZM46,42.88l-2.56-5.64h-.08l-2.51,5.64Z"/><path class="cls-1" d="M56.27,31.2a.44.44,0,0,1,.46-.38h.41a.47.47,0,0,1,.44.25l5.63,12.09h.08l5.63-12.09a.44.44,0,0,1,.43-.25h.41a.43.43,0,0,1,.46.38l3,17.21a.44.44,0,0,1-.46.58H70.45a.54.54,0,0,1-.48-.38l-1.51-9.7h-.08L63.9,49a.43.43,0,0,1-.43.28H63a.46.46,0,0,1-.43-.28L58,38.91H58l-1.48,9.7A.49.49,0,0,1,56,49H53.71a.46.46,0,0,1-.48-.58Z"/><path class="cls-1" d="M95.88,31.56a.48.48,0,0,1,.48-.49h7.32a5.54,5.54,0,0,1,5.58,5.51,5.66,5.66,0,0,1-3.78,5.17l3.5,6.5a.48.48,0,0,1-.43.74h-2.69a.43.43,0,0,1-.41-.23L102,42H99.2v6.53a.5.5,0,0,1-.48.48H96.36a.48.48,0,0,1-.48-.48Zm7.52,7.68a2.6,2.6,0,0,0,2.53-2.61,2.54,2.54,0,0,0-2.53-2.48H99.23v5.09Z"/><path class="cls-1" d="M112.62,31.69a.62.62,0,0,1,.62-.62h2.25a.63.63,0,0,1,.61.62V38.6l6.46-7.27a.59.59,0,0,1,.48-.26h2.56A.55.55,0,0,1,126,32l-6.68,7.52,7.17,8.58A.56.56,0,0,1,126,49h-2.79a.57.57,0,0,1-.46-.17l-6.69-8.25v7.81a.62.62,0,0,1-.61.61h-2.25a.61.61,0,0,1-.62-.61Z"/><path class="cls-1" d="M127.06,48.33l8-17.23a.48.48,0,0,1,.44-.28h.25a.44.44,0,0,1,.44.28L144,48.33a.45.45,0,0,1-.43.66h-2.23a.73.73,0,0,1-.74-.51l-1.25-2.76h-7.66l-1.25,2.76a.78.78,0,0,1-.74.51H127.5A.45.45,0,0,1,127.06,48.33Zm11.06-5.45-2.56-5.64h-.08L133,42.88Z"/><path class="cls-1" d="M79.8,44.46a6,6,0,0,1-2-4.44,5.92,5.92,0,0,1,5.86-5.92,5.84,5.84,0,0,1,.73,0l-2.85-2.84a.56.56,0,0,0-.51-.16,9.23,9.23,0,0,0,2.63,18.06c.3,0,.6,0,.9-.05Z"/><path class="cls-1" d="M83.61,30.77c-.3,0-.6,0-.9.05l4.83,4.83a5.86,5.86,0,0,1-4.66,10.18l2.75,2.74a.71.71,0,0,0,.7.24,9.23,9.23,0,0,0-2.72-18Z"/><rect class="cls-2" width="166.32" height="80.02"/></g></g></svg>