<svg xmlns="http://www.w3.org/2000/svg" viewBox="0 0 166.32 80.02"><defs><style>.cls-1{fill:#887f79;}.cls-2{fill:none;}</style></defs><title>Asset 16</title><g id="Layer_2" data-name="Layer 2"><g id="Layer_1-2" data-name="Layer 1"><path class="cls-1" d="M105.8,55.54a.29.29,0,0,1,.17-.38,2.1,2.1,0,0,0,1.19-1.85c0-.53,0-1.06,0-1.59V42.5c0-.62,0-1.24,0-1.85a3.1,3.1,0,0,0-.25-.82.93.93,0,0,0-.57-.51,2.16,2.16,0,0,1-.51-.34c-.06,0,0-.2,0-.34h8a20.85,20.85,0,0,1,5.15.61,12,12,0,0,1,3.57,1.53,7.8,7.8,0,0,1,1.92,1.75,7.28,7.28,0,0,1,1.14,2.08,7.8,7.8,0,0,1,.42,3.48,6.89,6.89,0,0,1-.67,2.35,7.94,7.94,0,0,1-1.53,2.07,11,11,0,0,1-4.67,2.61,15.21,15.21,0,0,1-4.18.67c-2.84,0-5.68,0-8.51,0-.14,0-.26,0-.34-.16S105.91,55.59,105.8,55.54ZM111,47.35h0v5.49c0,.5,0,.5.51.55a15,15,0,0,0,4.72-.26,8.27,8.27,0,0,0,4.09-2,5,5,0,0,0,1.49-2.61,6.43,6.43,0,0,0-.09-3.08,5.4,5.4,0,0,0-.82-1.81,5.67,5.67,0,0,0-.88-1,6.73,6.73,0,0,0-2.89-1.31,14.87,14.87,0,0,0-5.64-.18c-.43.06-.48.12-.48.57Z"/><path class="cls-1" d="M82.22,55.55c-.06-.2,0-.29.21-.39a2.13,2.13,0,0,0,1.33-1.44,6.36,6.36,0,0,0,.15-1.14q0-5.47,0-11a5.7,5.7,0,0,0-.17-1.16,1.68,1.68,0,0,0-.93-1.1,2.85,2.85,0,0,1-.53-.38c-.06-.06,0-.21,0-.34H87a.34.34,0,0,1,.37.2,4,4,0,0,0,.7.85c.39.41.8.8,1.2,1.2l1.69,1.67c.53.52,1,1.06,1.58,1.58L94,45.66c.41.4.8.81,1.21,1.22l1.26,1.23,1.14,1.13c.55.56,1.11,1.1,1.67,1.66l.32.33c0-.15,0-.23,0-.31,0-3,0-6.06,0-9.08a7.24,7.24,0,0,0-.13-1.24,1.61,1.61,0,0,0-1-1.21A2.41,2.41,0,0,1,98,39c-.06-.06,0-.2,0-.33h6a3.39,3.39,0,0,1,.1.52c0,.06-.09.15-.16.18a2.35,2.35,0,0,0-1.07.92,2.87,2.87,0,0,0-.3.85,5.82,5.82,0,0,0-.06,1q0,7,0,14.08v.21c0,.16-.09.22-.23.17-.57-.2-1.15-.37-1.69-.61a8.61,8.61,0,0,1-2.6-1.88l-1.74-1.73-2.27-2.23-1.55-1.57L90.8,47.05l-1.2-1.21L88,44.26c-.3-.29-.58-.6-.88-.89a2,2,0,0,0-.31-.19,1.22,1.22,0,0,0-.11.34q0,3.61,0,7.23c0,.83,0,1.66,0,2.49a1.82,1.82,0,0,0,.3,1.1,2.61,2.61,0,0,0,1,.83c.13.06.32.47.23.57a.32.32,0,0,1-.24.09H82.91c-.15,0-.29,0-.38-.17S82.34,55.59,82.22,55.55Z"/><path class="cls-1" d="M78.77,35.13c-.07-.21,0-.32.2-.36a1.36,1.36,0,0,0,.33-.14.32.32,0,0,0,.17-.42c-.17-.4-.36-.79-.54-1.18a2.12,2.12,0,0,0-.12-.2c-.23-.47-.46-.93-.68-1.4a.35.35,0,0,0-.34-.2l-4.4,0c-.44,0-.51.07-.69.47-.27.62-.59,1.22-.87,1.84a7.69,7.69,0,0,0-.27.81.27.27,0,0,0,.22.34c.26.07.4.19.39.47,0,0,0,.09.08.18l-.29,0H68.49c-.11,0-.22,0-.29-.14s-.21-.09-.33-.13,0-.27.2-.36a2.45,2.45,0,0,0,1.24-1.07c.25-.46.48-.92.72-1.38l1.08-2.12.68-1.34,1.08-2.11.68-1.34a3.87,3.87,0,0,0,.25-.55.33.33,0,0,0-.17-.48,1.58,1.58,0,0,1-.39-.29c-.06,0,0-.17-.08-.3h3.5A.3.3,0,0,1,77,24c.38.75.77,1.48,1.15,2.22l1.05,2,1,2,1,2c.23.44.45.88.7,1.31a3,3,0,0,0,1,1.06.35.35,0,0,0,.43,0,1.2,1.2,0,0,0,.63-.81,5,5,0,0,0,.12-.95c0-2.4,0-4.81,0-7.21a1.3,1.3,0,0,0-.69-1.28,1.42,1.42,0,0,1-.41-.33s0-.18,0-.28h3.4c.17.21.3.4.46.57l1.72,1.74,2.16,2.14,2.07,2.05L94.56,32h.06a2.29,2.29,0,0,0,0-.25V26c0-.2,0-.39,0-.59a1,1,0,0,0-.58-1,2.3,2.3,0,0,1-.47-.35c0-.05,0-.17-.06-.28h4.14l0,.56-.46.34a1.35,1.35,0,0,0-.52.92,4.53,4.53,0,0,0,0,.74v9.34c0,.18-.06.25-.24.2A5.76,5.76,0,0,1,94.56,35a17.84,17.84,0,0,1-2.22-2c-.51-.52-1-1-1.55-1.52l-1.58-1.6-1.58-1.55-.84-.86-.33-.31c-.14-.1-.26-.05-.29.13s0,.23,0,.35c0,1.94,0,3.87,0,5.8A1.3,1.3,0,0,0,87,34.76a.64.64,0,0,1,.21.56.21.21,0,0,1-.11.07H79.47c-.15,0-.31,0-.39-.17C79.06,35.16,78.88,35.16,78.77,35.13Zm-1.65-5.71c-.06-.15-.11-.29-.17-.41l-1.11-2.26c-.08-.16-.17-.32-.26-.47s-.17-.1-.24,0a2.75,2.75,0,0,0-.14.3c-.16.33-.33.66-.5,1-.29.57-.58,1.14-.86,1.71,0,0,0,.07,0,.14Z"/><path class="cls-1" d="M69.53,38.84A18,18,0,0,1,69.65,42a1,1,0,0,1,0,.17l-.06.08a1.83,1.83,0,0,1-.24-.13,7.65,7.65,0,0,0-3.9-1.4,7.52,7.52,0,0,0-3.36.33,2.68,2.68,0,0,0-1.43,1.07,1.28,1.28,0,0,0,.06,1.36,3.73,3.73,0,0,0,1.68,1.21c1.41.57,2.84,1.1,4.26,1.65a14,14,0,0,1,3.19,1.59,4.49,4.49,0,0,1,1.27,1.4,3.35,3.35,0,0,1,.42,1.7A3.54,3.54,0,0,1,70.8,53a7.35,7.35,0,0,1-3.5,2.45,13.3,13.3,0,0,1-5,.74,19.73,19.73,0,0,1-4.84-.65,2.72,2.72,0,0,1-.71-.38s0-.08-.05-.12c-.16-.53-.3-1.06-.46-1.59s-.35-1.14-.53-1.71c0-.06,0-.12-.05-.21l.15,0a11.83,11.83,0,0,0,4.78,2,9.24,9.24,0,0,0,4.28,0A4.29,4.29,0,0,0,67,52.45a1.5,1.5,0,0,0,.32-1.61,2.67,2.67,0,0,0-1.35-1.36,26.66,26.66,0,0,0-3.53-1.39,20.87,20.87,0,0,1-3.23-1.37A7,7,0,0,1,57.08,45a4.17,4.17,0,0,1-.46-.79,3.41,3.41,0,0,1-.25-2.11,3.53,3.53,0,0,1,1.16-1.94,7.83,7.83,0,0,1,3.81-1.66,19.86,19.86,0,0,1,7.37.1Z"/><path class="cls-1" d="M153.2,57.29s0,0,0,.05c.08.82.08.82-.74.82H13.55c-.49,0-.48.12-.48-.48,0-.13,0-.25,0-.39Z"/><path class="cls-1" d="M13.09,21.85H153.22c0,.26,0,.51,0,.76,0,0-.08.11-.13.13a.89.89,0,0,1-.23,0H13.44c-.37,0-.37,0-.37-.38,0-.16,0-.31,0-.46S13.08,21.89,13.09,21.85Z"/><path class="cls-1" d="M53.78,37.42l.27-.09a4.76,4.76,0,0,0-1.64.06c-1.15.28-2.3.54-3.46.76A1.36,1.36,0,0,1,48,38a2.25,2.25,0,0,0-.67-.3l.11-.16-.07,0H13.5c-.43,0-.43,0-.43-.42,0-.14,0-.29,0-.46H48.81a.26.26,0,0,1,.14.1s0,.1-.06.14-.08.06-.11.13l1.1-.48c.6-.27,1.2-.55,1.81-.81a.33.33,0,0,1,.24,0c.73.29,1.45.59,2.17.9l.18.1L54,36.8v.06l.79-.11a10.45,10.45,0,0,1,1.36-.14h85.15l11.67,0h.26c0,.25,0,.49,0,.73,0,0-.08.1-.13.11a.87.87,0,0,1-.23,0H53.78Z"/><path class="cls-1" d="M40.91,38.66h5.17a1.57,1.57,0,0,1,.07.51,2.27,2.27,0,0,1-.2.55c-.15.32-.33.63-.49,1-.27.57-.54,1.15-.82,1.73-.41.83-.83,1.66-1.24,2.5-.18.35-.34.71-.51,1.07-.3.62-.62,1.24-.92,1.86-.17.34-.32.69-.49,1l-.9,1.82-.51,1-.91,1.84c-.18.37-.34.75-.52,1.12-.29.57-.58,1.14-.86,1.71a.21.21,0,0,1-.33.1,11.32,11.32,0,0,1-2.86-1.75,4.87,4.87,0,0,1-.85-1.12c-.3-.5-.53-1.05-.78-1.58s-.47-1-.71-1.51L31.2,48.3l-1-2.19c-.35-.76-.7-1.51-1.06-2.26l-.69-1.49c-.24-.51-.46-1-.73-1.51a5.1,5.1,0,0,0-1.47-1.7c-.16-.12-.32-.25-.19-.5h5c0,.19.08.37.1.55a6.51,6.51,0,0,0,.8,2.18c.14.27.26.56.39.84.31.69.61,1.39.93,2.09s.71,1.51,1.06,2.27l1,2.18c.35.76.71,1.52,1.06,2.29.11.22.21.45.32.68,0,.07.1.13.16.22.13-.25.25-.46.36-.69.19-.39.36-.79.55-1.18l.82-1.63.39-.83c.18-.39.35-.79.54-1.18L40.68,44c.12-.24.24-.48.35-.72s.36-.76.51-1.14.37-1,.51-1.44a1.14,1.14,0,0,0-.55-1.37A2.1,2.1,0,0,1,41,39C40.92,38.92,40.94,38.78,40.91,38.66Z"/><path class="cls-1" d="M98.49,23.79l.32,0c1.86,0,3.71,0,5.56,0a11.25,11.25,0,0,1,4.4.87,6.18,6.18,0,0,1,2,1.35,5.14,5.14,0,0,1,1.12,1.81,5.51,5.51,0,0,1,.11,3.31,4.58,4.58,0,0,1-1.19,2,7.78,7.78,0,0,1-4.45,2.1,19,19,0,0,1-2.5.19c-1.52,0-3,0-4.54,0-.16,0-.36.08-.42-.18,0,0-.12,0-.18-.05s-.17-.07-.17-.11a.36.36,0,0,1,.11-.22c.2-.2.42-.38.6-.59a1,1,0,0,0,.19-.44,3.39,3.39,0,0,0,0-.64q0-3.76,0-7.53c0-.16,0-.32,0-.47a.92.92,0,0,0-.47-.8,2.21,2.21,0,0,1-.4-.28C98.52,24,98.52,23.9,98.49,23.79Zm3.66,5.88h0c0,1.2,0,2.4,0,3.61,0,.2.06.31.28.31s.74,0,1.11,0A7.06,7.06,0,0,0,108,32.3a3.26,3.26,0,0,0,1.21-2,4.3,4.3,0,0,0-.28-2.55,3.2,3.2,0,0,0-2-1.78,9.21,9.21,0,0,0-4.36-.34c-.35,0-.4.11-.4.46Z"/><path class="cls-1" d="M128,55.55c-.07-.2,0-.3.19-.37a1.73,1.73,0,0,0,1.16-1.72c0-.53,0-1.06,0-1.59V42.4c0-.66,0-1.32-.08-2a1.29,1.29,0,0,0-.79-1.1A1.69,1.69,0,0,1,128,39c-.06,0,0-.19,0-.31h6.47c0,.17.06.35.07.53a.2.2,0,0,1-.11.13,2.09,2.09,0,0,0-1.24,2c0,.46,0,.93,0,1.4V52.89c0,.21,0,.43,0,.64a1.82,1.82,0,0,0,.63,1.4,2.77,2.77,0,0,0,.54.28.61.61,0,0,1,.18.51.33.33,0,0,1-.25.11h-5.61a.37.37,0,0,1-.36-.17C128.26,55.59,128.11,55.58,128,55.55Z"/><path class="cls-1" d="M73.69,55.55c0-.13-.09-.29.13-.36A1.57,1.57,0,0,0,75,53.8a10.55,10.55,0,0,0,.12-1.48c0-3.42,0-6.84,0-10.26a8.61,8.61,0,0,0,0-.88,7.62,7.62,0,0,0-.2-1.06,1.14,1.14,0,0,0-.63-.76,2.55,2.55,0,0,1-.52-.36c-.06-.07,0-.21-.07-.34h6.42a2.92,2.92,0,0,1,.09.5.23.23,0,0,1-.14.17A1.7,1.7,0,0,0,79,40.7a8.3,8.3,0,0,0-.14,1c0,3.84,0,7.68,0,11.52A3.06,3.06,0,0,0,79,54.35a1.45,1.45,0,0,0,.93.85.55.55,0,0,1,.22.5.37.37,0,0,1-.28.13H74.35c-.14,0-.27,0-.36-.16S73.8,55.59,73.69,55.55Z"/><path class="cls-1" d="M53.73,38.65a3.43,3.43,0,0,1,.09.49.21.21,0,0,1-.12.17,2,2,0,0,0-1.22,1.87c0,.51,0,1,0,1.52,0,3.38,0,6.75,0,10.13a7.4,7.4,0,0,0,0,.94A1.64,1.64,0,0,0,53,54.88a1.89,1.89,0,0,0,.55.32c.15,0,.17.11.18.24,0,.39,0,.39-.37.39H48c-.14,0-.29,0-.36-.15s-.14,0-.2-.09-.18-.1-.17-.14.06-.2.13-.22a1.64,1.64,0,0,0,.92-.71,2.91,2.91,0,0,0,.22-.51,6.15,6.15,0,0,0,.19-1.71c0-.78,0-1.57,0-2.35V42.44c0-.46,0-.92,0-1.38a4.36,4.36,0,0,0-.27-1.12,1,1,0,0,0-.55-.58,2.85,2.85,0,0,1-.58-.4.27.27,0,0,1,0-.22s.08-.07.14-.09.06,0,.09,0h6.22Z"/><path class="cls-1" d="M61.24,23.79l.38,0H68.7a8.08,8.08,0,0,0,.86-.08A9.05,9.05,0,0,1,69.69,26c0,.16-.09.2-.22.11a3.69,3.69,0,0,0-2.42-.57c-.59,0-1.17,0-1.76.06a.31.31,0,0,0-.35.35c0,.68,0,1.37,0,2.05,0,.16.07.23.23.22h2.56a4.22,4.22,0,0,0,.62-.1,7.28,7.28,0,0,1,.14,2.17c0,.16-.13.21-.25.1A1.88,1.88,0,0,0,67,30c-.5,0-1,0-1.52,0s-.49.1-.49.5v3.07a4.9,4.9,0,0,0,0,.54.79.79,0,0,0,.59.7.52.52,0,0,1,.19.5c0,.06-.18.1-.28.1H61.94c-.11,0-.25.06-.28-.16,0,0-.23-.08-.36-.12v-.2a5.35,5.35,0,0,0,.61-.4,1.39,1.39,0,0,0,.36-1.07c0-.26,0-.53,0-.8,0-2.12,0-4.23,0-6.35a12.44,12.44,0,0,0-.09-1.37.87.87,0,0,0-.27-.43c-.16-.15-.36-.26-.53-.41S61.3,23.92,61.24,23.79Z"/><path class="cls-1" d="M44.68,35.13c-.06-.18,0-.29.19-.36a.87.87,0,0,0,.57-.52,2.56,2.56,0,0,0,.2-1.06V25.68a1.55,1.55,0,0,0-.21-.95,2.07,2.07,0,0,0-.6-.58c-.18-.1-.19-.19-.15-.37h4.45l-.06.42.19.12-.19.08a1.35,1.35,0,0,0-.78,1.18,6.77,6.77,0,0,0,0,.9c0,2.26,0,4.52,0,6.78,0,.16.06.23.21.24l.9.06c.91,0,1.82.06,2.72,0a5.27,5.27,0,0,0,2.35-.83,2.54,2.54,0,0,1,.53-.17c0,.23-.24.41,0,.55a.54.54,0,0,1-.05.16c-.28.56-.59,1.09-.81,1.66a.65.65,0,0,1-.73.46H45.35c-.14,0-.28,0-.35-.16S44.81,35.17,44.68,35.13Z"/><path class="cls-1" d="M55.25,23.78h4.44l0,.4c.13.1.13.16-.06.26a1,1,0,0,0-.61.73,6.07,6.07,0,0,0-.14,1c0,2.29,0,4.57,0,6.86,0,.22,0,.45,0,.67a1.13,1.13,0,0,0,.74,1.1c.09,0,.11.31.14.47a.42.42,0,0,1-.23.09H55.85c-.11,0-.22,0-.28-.15s-.19-.08-.32-.12,0-.28.2-.34c.43-.12.58-.5.69-.88a2.11,2.11,0,0,0,.06-.61V25.61a1.35,1.35,0,0,0-.2-.9,2.06,2.06,0,0,0-.58-.56C55.23,24.05,55.23,24,55.25,23.78Z"/><path class="cls-1" d="M113.15,35.12c-.05-.18,0-.28.2-.35a.9.9,0,0,0,.56-.55,2.91,2.91,0,0,0,.18-1c0-2.35,0-4.69,0-7a6.43,6.43,0,0,0,0-.76,2.56,2.56,0,0,0-.24-.77,1.53,1.53,0,0,0-.52-.49c-.18-.13-.19-.1-.17-.36h4.44l-.08.39.16.13a4,4,0,0,0-.37.22,1.57,1.57,0,0,0-.58,1.26c0,.28,0,.56,0,.84q0,3.38,0,6.77a3.09,3.09,0,0,0,.14.85.86.86,0,0,0,.69.6c0,.13.06.27.07.41s-.06.1-.1.12-.12,0-.19,0h-3.54c-.12,0-.27,0-.32-.15S113.28,35.16,113.15,35.12Z"/><rect class="cls-2" width="166.32" height="80.02"/></g></g></svg>