<svg xmlns="http://www.w3.org/2000/svg" viewBox="0 0 166.32 80.02"><defs><style>.cls-1{fill:#887f79;}.cls-2{fill:none;}</style></defs><title>Asset 19</title><g id="Layer_2" data-name="Layer 2"><g id="Layer_1-2" data-name="Layer 1"><path class="cls-1" d="M56.09,53a5.16,5.16,0,0,1-1.52,3.71,5.65,5.65,0,0,1-4.39,1.57H41.25V41.5l7.6,0A5.16,5.16,0,0,1,53.08,43a4.76,4.76,0,0,1,1.25,3.55,3,3,0,0,1-.75,2.27,1.64,1.64,0,0,1,1,.5A4.87,4.87,0,0,1,56.09,53M45.85,45.34v2.44h2.37a1.44,1.44,0,0,0,1-.36,1.25,1.25,0,0,0,.36-.87,1.2,1.2,0,0,0-1.21-1.21ZM51,53a1.27,1.27,0,0,0-1.26-1.26H45.85v2.56h3.58a1.59,1.59,0,0,0,1.18-.39A1.27,1.27,0,0,0,51,53"/><path class="cls-1" d="M107.91,41.5V51.69a6.91,6.91,0,0,1-2.1,5.09,7.18,7.18,0,0,1-10.21,0,6.91,6.91,0,0,1-2.1-5.09V41.5h5.22V51.69a2,2,0,0,0,4,0V41.5Z"/><polygon class="cls-1" points="125.07 58.23 119.93 58.23 119.88 58.26 114.5 50.51 114.5 58.23 109.31 58.23 109.31 41.5 114.5 41.48 119.86 49.11 119.86 41.48 125.07 41.48 125.07 58.23"/><polygon class="cls-1" points="92.33 41.48 85.77 41.48 81.25 47.27 81.25 41.48 76.04 41.48 76.04 49.85 76.04 58.23 81.25 58.23 81.25 52.44 85.77 58.23 92.33 58.23 86 49.85 92.33 41.48"/><path class="cls-1" d="M72.16,56.25a9,9,0,1,1-12.7-12.69A9,9,0,0,1,74.81,49.9a8.67,8.67,0,0,1-2.65,6.35m-3.7-9a3.56,3.56,0,0,0-2.65-1.11A3.76,3.76,0,0,0,62,49.9a3.74,3.74,0,0,0,1.09,2.68,3.67,3.67,0,0,0,2.68,1.09,3.62,3.62,0,0,0,2.65-1.09A3.56,3.56,0,0,0,69.6,49.9a3.46,3.46,0,0,0-1.14-2.65"/><path class="cls-1" d="M122.71,37.44l-8.46-7.37-6,3.54,3.9-2.73-10.8-9.76L92,30.57l1.12-1.71-1.46-1.41L88.2,30.37l-1.75-.56L76.35,39h48.53Zm-8.36-6.13L117,33.46l-1.56,0-1.16,1.24,0-1.51-5.72,1.48h0Zm-13.09-8.24L105,28a10.27,10.27,0,0,0-2.21-1c-.14.15-3.33,4.11-3.33,4.11l-.18-2.34-.64,1.3L98.56,29l-6,3ZM86.71,30.8l1,1.06,3.32-2.67L90,31.57l-.37-.36L86.18,35s0-.5,0-.68-1.09.35-1.09.35l1.06-2.2-2.2.47Z"/><polygon class="cls-1" points="70.97 35.25 67.1 39.03 63.65 39.03 67.1 35.25 70.97 35.25"/><rect class="cls-2" width="166.32" height="80.02"/></g></g></svg>