<svg xmlns="http://www.w3.org/2000/svg" viewBox="0 0 166.32 80.02"><defs><style>.cls-1{fill:none;}.cls-2{fill:#887f79;}</style></defs><title>Asset 13</title><g id="Layer_2" data-name="Layer 2"><g id="Layer_1-2" data-name="Layer 1"><rect class="cls-1" width="166.32" height="80.02"/><path class="cls-2" d="M85.21,26.31a14.06,14.06,0,0,1,.41,3.6q0,7.31,0,14.6c0,.28-.05.38-.35.37-1.68,0-3.36,0-5,0-.28,0-.33-.08-.33-.33,0-5,0-10,0-15a6.22,6.22,0,0,0-.25-1.92,2.75,2.75,0,0,0-2.34-1.89,12.55,12.55,0,0,0-4.69.14c-.6.11-1.19.29-1.79.45a.38.38,0,0,0-.32.44q0,8.83,0,17.67c0,.44,0,.44-.43.44-1.57,0-3.13,0-4.7,0-.22,0-.28-.06-.28-.28V23.2a.4.4,0,0,1,.21-.38A21.3,21.3,0,0,1,74,20.09s.1,0,.13-.06h2.84c.06.09.15,0,.22.06a11,11,0,0,1,3.7,1c.38.18.74.4,1.11.6a13.14,13.14,0,0,1,1.5,1.39,9.79,9.79,0,0,1,1.25,2C84.92,25.43,85,25.89,85.21,26.31Z"/><path class="cls-2" d="M85.21,26.31c-.19-.42-.29-.88-.49-1.3a9.79,9.79,0,0,0-1.25-2A13.14,13.14,0,0,0,82,21.67l.13-.07a21.89,21.89,0,0,1,5.22-1.4A3.93,3.93,0,0,0,88.4,20h2.85c.48.08,1,.15,1.44.25a8.89,8.89,0,0,1,4.45,2.13A8.39,8.39,0,0,1,99.67,27a12.32,12.32,0,0,1,.24,2.5q0,7.5,0,15c0,.29-.07.37-.37.36-1.45,0-2.91,0-4.36,0-.26,0-.32-.07-.32-.32q0-7.62,0-15.24a4,4,0,0,0-.63-2.39,3,3,0,0,0-2.09-1.2,15.7,15.7,0,0,0-6.71.51Z"/><path class="cls-2" d="M24,51.61a2.29,2.29,0,0,1,1.27-.11c.13,0,.17.16.22.27l1.76,3.65c.05.1.06.24.2.24s.13-.14.17-.23c.58-1.21,1.16-2.41,1.74-3.63a.45.45,0,0,1,.51-.32,5.42,5.42,0,0,0,.57,0c.35,0,.42.08.42.44v5.33c0,.77,0,1.53,0,2.3,0,.26-.09.36-.36.36-.67,0-.67,0-.67-.66V53.08c-.14.05-.15.17-.2.26-.46.95-.92,1.91-1.37,2.86a.65.65,0,0,1-.71.44h-.28a.61.61,0,0,1-.66-.41l-1.41-2.91a.64.64,0,0,0-.19-.26v6.4c0,.41,0,.45-.44.45-.2,0-.41.05-.58-.11Z"/><path class="cls-2" d="M72.47,53.06c-.51,1-1,2.1-1.53,3.16a.62.62,0,0,1-.68.42h-.33a.6.6,0,0,1-.62-.39c-.48-1-1-2-1.46-3a.18.18,0,0,0-.14-.14v6.38c0,.41,0,.45-.45.45H67c-.16,0-.26-.08-.26-.26V51.8a.3.3,0,0,1,.32-.32h.82c.19,0,.26.12.33.26l1.73,3.6c.06.12.08.32.24.31s.16-.19.21-.3C70.9,54.19,71.46,53,72,51.88c.14-.3.31-.45.64-.4a5,5,0,0,0,.55,0,.32.32,0,0,1,.37.37v7.61c0,.15.06.37-.15.41a1,1,0,0,1-.79,0c-.13-.07-.09-.23-.09-.36V53.06Z"/><path class="cls-2" d="M122.24,53.18v6.45a.24.24,0,0,1-.28.28h-.06c-.8,0-.68.09-.68-.67V52c0-.46.06-.52.52-.52,1,0,.73-.13,1.16.7,1,1.91,2,3.83,3,5.75a1.2,1.2,0,0,0,.23.3V51.88c0-.39,0-.4.41-.4.62,0,.62,0,.62.63v7.18c0,.54-.08.58-.6.63a1,1,0,0,1-1.09-.67c-1-2-2.06-4-3.1-5.92a1.63,1.63,0,0,0-.11-.17Z"/><path class="cls-2" d="M43.75,58.22V51.94c0-.46,0-.46.45-.46s.56,0,.56.58c0,2.44,0,4.88,0,7.33,0,.45-.07.48-.53.53a1,1,0,0,1-1.14-.67c-1-2-2-3.9-3.06-5.84a.52.52,0,0,0-.19-.27v6.34c0,.4,0,.43-.43.43-.69,0-.6.06-.6-.6V52c0-.47.06-.53.52-.53,1,0,.73-.14,1.19.72l3,5.78A.42.42,0,0,0,43.75,58.22Z"/><path class="cls-2" d="M47.54,53.17v6.32c0,.38,0,.42-.41.42-.7,0-.61.05-.61-.59V52c0-.44.06-.5.51-.5,1,0,.74-.14,1.18.71l3,5.79c0,.07.08.15.14.24a.55.55,0,0,0,0-.35c0-2,0-4,0-5.94,0-.44,0-.45.46-.45a1.47,1.47,0,0,0,.21,0c.27,0,.35.08.35.35,0,2.54,0,5.09,0,7.63,0,.35-.09.45-.45.45-1,0-.79.1-1.23-.74-1-1.92-2-3.85-3.05-5.78l-.13-.23Z"/><path class="cls-2" d="M141.35,58.18V52c0-.49,0-.5.48-.5s.52,0,.52.51c0,2.48,0,4.95,0,7.43,0,.43-.06.45-.48.5a1,1,0,0,1-1.18-.7c-1-2-2.07-4-3.12-5.95a.25.25,0,0,0-.13-.14v6.34c0,.42,0,.44-.45.44-.63,0-.57.05-.57-.57V52c0-.46.07-.53.52-.53,1,0,.74-.13,1.18.72,1,1.94,2,3.89,3.07,5.83l.09.16Z"/><path class="cls-2" d="M113.44,55.7a8.27,8.27,0,0,1-.18,2.16A2.72,2.72,0,0,1,110.55,60a2.84,2.84,0,0,1-3.18-2.58,11.68,11.68,0,0,1,0-3.59,3,3,0,0,1,6,.26A14.71,14.71,0,0,1,113.44,55.7Zm-1.07,0a9.82,9.82,0,0,0-.08-1.72,1.92,1.92,0,0,0-.9-1.41,2,2,0,0,0-2.92,1.32,12.37,12.37,0,0,0-.09,3.1,3,3,0,0,0,.12.66,1.94,1.94,0,0,0,3.73,0A7.29,7.29,0,0,0,112.37,55.7Z"/><path class="cls-2" d="M80.76,59.91c-.51,0-.51,0-.64-.47-.19-.69-.39-1.38-.58-2.07a.28.28,0,0,0-.33-.25c-.8,0-1.61,0-2.42,0a.26.26,0,0,0-.31.23c-.19.75-.41,1.49-.61,2.24a.35.35,0,0,1-.4.31c-.8,0-.8,0-.58-.75q1-3.4,1.94-6.83a1.17,1.17,0,0,1,1.2-.95,1.13,1.13,0,0,1,1.16.94c.67,2.34,1.33,4.67,2,7C81.35,59.9,81.34,59.91,80.76,59.91Zm-1.51-3.69c-.34-1.25-.68-2.46-1-3.67,0-.13-.07-.24-.23-.23s-.18.12-.21.23c-.08.31-.17.62-.26.93L76.84,56c0,.13-.11.27.15.26Z"/><path class="cls-2" d="M93.55,59.91c-.5,0-.5,0-.64-.47-.19-.69-.39-1.38-.57-2.07a.29.29,0,0,0-.33-.25c-.81,0-1.62,0-2.43,0a.25.25,0,0,0-.3.23c-.2.75-.42,1.49-.62,2.25a.35.35,0,0,1-.4.3c-.8,0-.8,0-.58-.75.65-2.27,1.29-4.55,1.94-6.83a1.18,1.18,0,0,1,1.5-.91,1.1,1.1,0,0,1,.86.87c.44,1.58.89,3.14,1.33,4.71.22.78.45,1.55.67,2.33C94.14,59.9,94.13,59.91,93.55,59.91ZM92,56.22c-.34-1.25-.68-2.45-1-3.66,0-.12-.06-.24-.22-.24s-.2.12-.23.24c-.09.33-.19.66-.28,1-.22.8-.45,1.61-.67,2.42,0,.11-.11.26.14.25Z"/><path class="cls-2" d="M62.19,57.13H61c-.21,0-.3,0-.35.25-.19.73-.41,1.44-.6,2.16a.41.41,0,0,1-.47.38c-.74,0-.74,0-.54-.72.66-2.3,1.31-4.59,2-6.89a1.15,1.15,0,0,1,1.18-.93,1.13,1.13,0,0,1,1.18.93l2,7.21c.09.32,0,.39-.29.39-.82,0-.65.1-.87-.64s-.37-1.25-.53-1.89c0-.21-.15-.26-.35-.25Zm0-.91h1.06c.17,0,.2,0,.15-.21l-1-3.46c0-.11-.07-.22-.21-.23s-.2.11-.24.23c-.32,1.15-.63,2.31-1,3.46,0,.17,0,.22.16.21Z"/><path class="cls-2" d="M130,54.61c0,.94,0,1.88,0,2.81A1.52,1.52,0,0,0,131,59a2.56,2.56,0,0,0,1.55,0,1.6,1.6,0,0,0,1-1.56,4.57,4.57,0,0,0,0-.64c0-1.63,0-3.27,0-4.91,0-.28.09-.39.39-.38.74,0,.69-.07.69.68,0,1.66,0,3.31,0,5a3.83,3.83,0,0,1-.14.95,2.37,2.37,0,0,1-2,1.84,4,4,0,0,1-1.66,0,2.47,2.47,0,0,1-2-2.6c-.06-1.84,0-3.69,0-5.54,0-.19.09-.26.28-.27.79,0,.79,0,.79.73v2.4Z"/><path class="cls-2" d="M32.57,55.68v-2c0-1.54.59-2.18,2.12-2.28.79,0,1.59,0,2.38,0,.18,0,.25.08.27.26,0,.63,0,.63-.59.64a20.66,20.66,0,0,0-2.36,0c-.52.08-.7.3-.75.82s0,1,0,1.58c0,.22,0,.29.28.28h3c.15,0,.35,0,.41.15a.91.91,0,0,1,0,.65c-.07.13-.21.11-.33.11-1,0-2,0-3.06,0-.22,0-.29.06-.28.29,0,.61,0,1.23,0,1.84s.28.88.9.91c.81,0,1.62,0,2.42,0,.13,0,.33-.06.36.13a1.26,1.26,0,0,1,0,.72c0,.06-.13,0-.2,0a14.35,14.35,0,0,1-2.93,0,1.75,1.75,0,0,1-1.57-1.81c0-.07,0-.14,0-.21Z"/><path class="cls-2" d="M96.94,60a10.29,10.29,0,0,1-1.68-.14c-.3,0-.35-.18-.29-.66,0-.27.23-.21.39-.2a17.62,17.62,0,0,0,2.18,0,1.2,1.2,0,0,0,1.24-1.39.92.92,0,0,0-.3-.64,5.82,5.82,0,0,0-1.22-.88,13.89,13.89,0,0,1-1.77-1.17,2,2,0,0,1-.65-2.13,1.82,1.82,0,0,1,1.56-1.3,8.58,8.58,0,0,1,2.53,0l.21,0c.51,0,.64.22.52.73,0,.19-.18.19-.32.18-.68,0-1.35-.08-2-.06a4.06,4.06,0,0,0-.69.08.82.82,0,0,0-.73.59,1,1,0,0,0,.22,1.07,4.73,4.73,0,0,0,.72.55c.57.35,1.14.68,1.71,1a4.81,4.81,0,0,1,.57.44,2.16,2.16,0,0,1-1.17,3.81A5.71,5.71,0,0,1,96.94,60Z"/><path class="cls-2" d="M115,56.43c0-1.09,0-2.18,0-3.27a1.69,1.69,0,0,1,1.66-1.72,19.23,19.23,0,0,1,2.84,0c.16,0,.23.09.23.26,0,.79.06.62-.61.64a19.58,19.58,0,0,0-2.3,0c-.58.08-.78.32-.79.91s0,1,0,1.55c0,.2.08.22.25.22h3c.39,0,.42,0,.42.47s0,.44-.42.44c-1,0-2,0-3,0-.23,0-.28.07-.28.29,0,1.07,0,2.14,0,3.21,0,.39-.05.44-.43.44h-.25c-.29,0-.39-.11-.39-.39,0-1,0-2.06,0-3.09Z"/><path class="cls-2" d="M103.26,56.1c0-1.15,0-2.3,0-3.45,0-.21-.06-.28-.27-.28-.6,0-1.19,0-1.79,0-.28,0-.4-.08-.39-.38,0-.52,0-.53.52-.53h5c.39,0,.41,0,.41.44s0,.46-.41.46H104.7c-.38,0-.38,0-.38.4v6.6c0,.17.07.42-.13.49a1.29,1.29,0,0,1-.8,0c-.15,0-.13-.21-.13-.35Z"/><path class="cls-2" d="M55.79,56.1c0-1.15,0-2.3,0-3.45,0-.21,0-.28-.27-.28-.6,0-1.21,0-1.81,0-.26,0-.39-.08-.35-.35a1.22,1.22,0,0,0,0-.27c0-.2.07-.28.27-.28H59c.2,0,.26.08.27.27,0,.63,0,.63-.59.63s-1,0-1.55,0c-.25,0-.3.08-.3.31,0,2.26,0,4.53,0,6.79,0,.43,0,.44-.44.44h-.22c-.29,0-.39-.1-.39-.39C55.79,58.38,55.79,57.24,55.79,56.1Z"/><path class="cls-2" d="M82.28,55c0-1,0-2.08,0-3.12,0-.29.08-.4.38-.39.69,0,.67-.08.67.67v5.76c0,.8.24,1.07,1,1.1s1.57,0,2.36,0c.24,0,.34.07.31.31a.54.54,0,0,0,0,.18c0,.29-.09.39-.37.4a14.35,14.35,0,0,1-2.78,0,1.7,1.7,0,0,1-1.59-1.84C82.27,57.05,82.28,56,82.28,55Z"/><path class="cls-2" d="M79.22,49.12c.17,0,.41-.08.48.06s-.15.3-.26.43c-.34.39-.69.77-1,1.15a1.27,1.27,0,0,1-.91.14c-.12-.07,0-.15,0-.2.38-.5.77-1,1.16-1.47C78.8,49,79,49.16,79.22,49.12Z"/></g></g></svg>