<svg xmlns="http://www.w3.org/2000/svg" viewBox="0 0 166.32 80.02"><defs><style>.cls-1,.cls-2{fill:#887f79;}.cls-1{fill-rule:evenodd;}.cls-3{fill:none;}</style></defs><title>Asset 24</title><g id="Layer_2" data-name="Layer 2"><g id="Layer_1-2" data-name="Layer 1"><path class="cls-1" d="M29.68,25.12H17.48v22.8c.6,6.55,6.39,12.34,12.12,15,5.73-2.65,11.59-8.44,12.18-15V25.12Zm-7.53.48h3.74v3.74H22.15Zm-.46,16.81-1.87-1.23L18,42.41V40.55l1.85-1.25,1.87,1.25Zm0-3.74-1.87-1.22L18,38.68V36.81l1.85-1.25,1.87,1.25Zm0-3.74-1.87-1.22L18,34.94V33.08l1.85-1.26,1.87,1.26Zm4.2,25.21a26.78,26.78,0,0,1-3.74-3.26V31.2h3.76Zm0-29.41H22.15v-.92h3.76Zm7,11.68L31,41.19l-1.42,1-1.4-1-1.85,1.22V40.56l1.85-1.26,1.39,1,1.43-1,1.85,1.26Zm0-3.73L31,37.45l-1.42,1-1.4-1-1.85,1.23V36.82l1.85-1.25,1.39,1,1.43-1,1.85,1.25Zm0-3.74L31,33.71l-1.42,1-1.4-1-1.85,1.23V33.08l1.85-1.26,1.39,1,1.43-1,1.85,1.26Zm4.22,21.94a26.22,26.22,0,0,1-3.74,3.26V31.2h3.75Zm0-26.15H33.36v-.92h3.75Zm0-1.39H33.38V25.6h3.74Zm4.17,13.07-1.84-1.23-1.87,1.23V40.55l1.87-1.25,1.84,1.25Zm0-3.73-1.84-1.23-1.87,1.22V36.81l1.87-1.25,1.84,1.25Zm0-3.74-1.84-1.23-1.87,1.22V33.08l1.87-1.26,1.84,1.26Z"/><path class="cls-2" d="M55.45,38.08v4.33H54.12V32.22H57.9c1.41,0,2.25,0,3,.62A2.79,2.79,0,0,1,62,35.19,2.63,2.63,0,0,1,59.6,38l2.86,4.42H60.84l-2.77-4.33H55.45m0-1.13h2.7a5.11,5.11,0,0,0,1.24-.1,1.57,1.57,0,0,0,1.27-1.64,1.82,1.82,0,0,0-.61-1.43,2.86,2.86,0,0,0-2-.43H55.45Z"/><path class="cls-2" d="M69.59,40.32a3.09,3.09,0,0,1-3.08,2.29c-2,0-3.33-1.37-3.33-3.66a3.27,3.27,0,0,1,3.29-3.55,3,3,0,0,1,3,2.41,6.07,6.07,0,0,1,.13,1.38H64.42a2.27,2.27,0,0,0,2.2,2.55,1.79,1.79,0,0,0,1.8-1.58l1.17.16m-1.26-2a2,2,0,0,0-2-2.09c-1,0-1.8.72-1.93,2.09Z"/><path class="cls-2" d="M76.27,35.61l-2.86,8c-.49,1.37-.82,2.12-2.09,2.12a3.62,3.62,0,0,1-1-.16v-1a2.67,2.67,0,0,0,.73.11c.84,0,1-.49,1.36-1.43l.29-.82-2.31-6.84h1.22L73.27,41l1.8-5.4h1.2"/><polyline class="cls-2" points="80.15 38.3 83.25 42.41 81.81 42.41 79.37 39.15 78.55 40.01 78.55 42.41 77.38 42.41 77.38 32.22 78.55 32.22 78.55 38.5 81.26 35.61 82.67 35.61 80.15 38.3"/><path class="cls-2" d="M85.11,35.63v8.28a1.79,1.79,0,0,1-.37,1.38,1.61,1.61,0,0,1-1.26.42c-.36,0-.6,0-.76,0v-1a3.28,3.28,0,0,0,.52,0c.75,0,.75-.46.75-1.06v-8h1.12M84,32.22h1.12v1.34H84Z"/><path class="cls-2" d="M91.05,38.34v-.17c0-.71,0-1.89-1.53-1.89s-1.46,1.06-1.46,1.42l-1.21-.07a2.57,2.57,0,0,1,.27-1,2.48,2.48,0,0,1,2.35-1.21,3.37,3.37,0,0,1,2,.57,2.57,2.57,0,0,1,.74,2.3v2.2c0,.65,0,1,.49,1a.84.84,0,0,0,.37-.08v1a2.72,2.72,0,0,1-.72.11,1.05,1.05,0,0,1-1.18-1,3,3,0,0,1-2.34,1.12,2.07,2.07,0,0,1-2.31-2,1.91,1.91,0,0,1,.31-1c.39-.57,1.11-1,3.14-1.19l1.09-.09m-1.78,1c-1.27.28-1.49.75-1.49,1.23s.44,1,1.29,1a1.86,1.86,0,0,0,1.8-1c.18-.37.19-.53.19-1.52C90.61,39.15,90,39.23,89.27,39.39Z"/><polyline class="cls-2" points="98.23 35.61 99.41 35.61 96.96 42.41 95.92 42.41 93.44 35.61 94.64 35.61 96.44 40.82 98.23 35.61"/><path class="cls-2" d="M100.54,35.61h1.11v6.8h-1.11Zm2-2.81-1.24,2.08h-.59l.59-2.08Z"/><polyline class="cls-2" points="106.28 38.3 109.39 42.41 107.94 42.41 105.5 39.15 104.68 40.01 104.68 42.41 103.51 42.41 103.51 32.22 104.68 32.22 104.68 38.5 107.39 35.61 108.81 35.61 106.28 38.3"/><path class="cls-2" d="M110.12,35.61h1.14v3.88a5.11,5.11,0,0,0,0,.94,1.22,1.22,0,0,0,1.36,1.07,2,2,0,0,0,1.53-.65,2.56,2.56,0,0,0,.41-1.83V35.61h1.14v6.8h-1.14v-1a2.77,2.77,0,0,1-2.32,1.21,2.06,2.06,0,0,1-1.66-.69c-.49-.56-.49-1.16-.49-2.3v-4"/><path class="cls-2" d="M118.79,35.61v1.24a2.47,2.47,0,0,1,2.34-1.32v1.24a3.33,3.33,0,0,0-.48,0,1.74,1.74,0,0,0-1.57.81,3.23,3.23,0,0,0-.29,1.71v3.15h-1.15v-6.8h1.15"/><path class="cls-2" d="M123.31,32.21v4.33a2.73,2.73,0,0,1,2.34-1.14c1.47,0,3.13,1,3.13,3.62,0,1.71-.82,3.59-3.15,3.59a2.71,2.71,0,0,1-2.32-1.08v.88h-1.15V32.21h1.15m2.12,9.43c1.56,0,2.12-1.4,2.12-2.68,0-1.67-1-2.51-2.1-2.51-.94,0-2.15.56-2.17,2.57S124.35,41.64,125.43,41.64Z"/><path class="cls-2" d="M133.25,42.61a3.25,3.25,0,0,1-3.35-3.55c0-1.51.75-3.66,3.4-3.66,2.25,0,3.29,1.74,3.27,3.6,0,2.07-1.24,3.61-3.32,3.61m2-4.56a1.88,1.88,0,0,0-1.92-1.73c-1.54,0-2.16,1.2-2.16,2.76s.59,2.61,2.08,2.61c1.92,0,2.06-2,2.07-2.69A3.4,3.4,0,0,0,135.24,38.05Z"/><path class="cls-2" d="M139.24,35.61v1.24a2.47,2.47,0,0,1,2.34-1.32v1.24a3.43,3.43,0,0,0-.48,0,1.74,1.74,0,0,0-1.57.81,3.23,3.23,0,0,0-.29,1.71v3.15h-1.15v-6.8h1.15"/><path class="cls-2" d="M148.84,35.61V42a4.6,4.6,0,0,1-.42,2.37,3,3,0,0,1-2.73,1.31,3.7,3.7,0,0,1-2.08-.57,2.74,2.74,0,0,1-1-2h1.3c0,.78.46,1.6,1.89,1.6a1.9,1.9,0,0,0,1.44-.49c.42-.44.44-1,.44-2.07v-.8a2.69,2.69,0,0,1-2.24,1.2c-1.64,0-3.14-1.2-3.14-3.56,0-2.75,1.77-3.65,3.16-3.65a2.81,2.81,0,0,1,2.22,1.12v-.91h1.2M143.44,39a3,3,0,0,0,.48,1.78,2,2,0,0,0,1.67.81,1.87,1.87,0,0,0,1.66-.87,3.46,3.46,0,0,0,.45-1.82c0-2.31-1.72-2.47-2.18-2.47C144.28,36.45,143.44,37.43,143.44,39Z"/><rect class="cls-3" width="166.32" height="80.02"/></g></g></svg>