<svg xmlns="http://www.w3.org/2000/svg" viewBox="0 0 166.32 80.02"><defs><style>.cls-1{fill:#887f79;}.cls-2{fill:none;}</style></defs><title>Asset 14</title><g id="Layer_2" data-name="Layer 2"><g id="Layer_1-2" data-name="Layer 1"><polygon class="cls-1" points="49.99 27.95 22.26 27.95 13.59 22.76 22.26 17.58 49.99 17.58 49.99 27.95"/><polygon class="cls-1" points="15.32 34.85 43.01 34.85 51.72 40.04 43.01 45.22 15.32 45.22 15.32 34.85"/><rect class="cls-1" x="15.32" y="52.13" width="10.4" height="10.36"/><rect class="cls-1" x="60.38" y="17.59" width="0.67" height="44.92"/><path class="cls-1" d="M65.46,17.59h5.68v1.5H67.08v2.06h3.55v1.43H67.08v3.63H65.46Z"/><path class="cls-1" d="M77.05,25.18a1.84,1.84,0,0,0,.23,1H75.72a1.15,1.15,0,0,1-.15-.56,3.1,3.1,0,0,1-2,.7,1.93,1.93,0,0,1-2.09-1.92,2,2,0,0,1,1.87-1.91L74,22.4a14.22,14.22,0,0,0,1.6-.37v-.18c0-.6-.52-.77-1.17-.77-.86,0-1.14.25-1.14.92l-1.48-.06c0-1.44,1.28-2,2.62-2s2.65.27,2.65,2Zm-1.48-2a2.62,2.62,0,0,1-.7.21l-.82.17c-.56.11-1,.27-1,.85s.43.76,1,.76c.69,0,1.58-.34,1.58-1.12Z"/><path class="cls-1" d="M79.77,22.9l-1.84-2.82h1.72l1,1.51,1-1.51h1.72L81.5,22.9l2.12,3.31H81.85l-1.22-1.94-1.21,1.94H77.65Z"/><path class="cls-1" d="M89.42,25.18a1.84,1.84,0,0,0,.23,1H88.09a1.15,1.15,0,0,1-.15-.56,3.1,3.1,0,0,1-2,.7,1.93,1.93,0,0,1-2.09-1.92,2,2,0,0,1,1.87-1.91l.62-.12a13.72,13.72,0,0,0,1.6-.37v-.18c0-.6-.52-.77-1.16-.77-.87,0-1.14.25-1.14.92l-1.49-.06c0-1.44,1.28-2,2.63-2s2.64.27,2.64,2Zm-1.48-2a2.51,2.51,0,0,1-.7.21l-.82.17c-.55.11-1,.27-1,.85s.43.76,1,.76c.7,0,1.58-.34,1.58-1.12Z"/><path class="cls-1" d="M91,21.15h-.9V20.08H91v-1c0-1.25.84-1.53,1.81-1.53.33,0,.67,0,1,0v1.28a3.75,3.75,0,0,0-.48,0c-.6,0-.84.24-.84.77v.43h1.32v1.07H92.52v5.06H91Zm3.35-3.57h1.48v8.63H94.39Z"/><path class="cls-1" d="M103.23,23.15a3.15,3.15,0,1,1-6.29,0,3.15,3.15,0,1,1,6.29,0Zm-4.74,0a1.61,1.61,0,1,0,3.18,0,1.61,1.61,0,1,0-3.18,0Zm1.79-5.56h1.62l-1.72,1.74h-1Z"/><path class="cls-1" d="M109.43,25.18a1.84,1.84,0,0,0,.23,1H108.1a1.15,1.15,0,0,1-.15-.56,3.1,3.1,0,0,1-2,.7,1.93,1.93,0,0,1-2.09-1.92,2,2,0,0,1,1.87-1.91l.62-.12A14.22,14.22,0,0,0,108,22v-.18c0-.6-.52-.77-1.16-.77-.87,0-1.15.25-1.15.92l-1.48-.06c0-1.44,1.28-2,2.63-2s2.64.27,2.64,2Zm-1.48-2a2.62,2.62,0,0,1-.7.21l-.82.17c-.56.11-1,.27-1,.85s.43.76,1,.76c.69,0,1.58-.34,1.58-1.12Z"/><path class="cls-1" d="M110.82,17.59h1.48v3.1h0a2.16,2.16,0,0,1,1.76-.75,2,2,0,0,1,2.25,2.21v4.06h-1.48V22.58c0-.85-.34-1.21-1.1-1.21-1.11,0-1.45.94-1.45,1.69v3.15h-1.48Z"/><path class="cls-1" d="M122.92,25.18a1.84,1.84,0,0,0,.23,1h-1.56a1.15,1.15,0,0,1-.15-.56,3.1,3.1,0,0,1-2,.7,1.93,1.93,0,0,1-2.09-1.92,2,2,0,0,1,1.87-1.91l.62-.12a14.22,14.22,0,0,0,1.6-.37v-.18c0-.6-.52-.77-1.17-.77-.86,0-1.14.25-1.14.92l-1.48-.06c0-1.44,1.28-2,2.62-2s2.65.27,2.65,2Zm-1.48-2a2.62,2.62,0,0,1-.7.21l-.82.17c-.56.11-1,.27-1,.85s.43.76,1,.76c.69,0,1.58-.34,1.58-1.12Z"/><path class="cls-1" d="M124.54,21.15h-.9V20.08h.9v-1c0-1.25.83-1.53,1.8-1.53.33,0,.67,0,1,0v1.28a4,4,0,0,0-.49,0c-.59,0-.83.24-.83.77v.43h1.32v1.07H126v5.06h-1.48Z"/><path class="cls-1" d="M128.13,20.08h1.48v.61h0a2.14,2.14,0,0,1,1.67-.75A1.85,1.85,0,0,1,133.42,22v4.19h-1.48V22.47a1,1,0,0,0-1-1.1c-.71,0-1.31.48-1.31,1.61v3.23h-1.48Z"/><path class="cls-1" d="M134.88,17.59h1.48v1.5h-1.48Zm0,2.49h1.48v6.13h-1.48Z"/><path class="cls-1" d="M137.82,20.08h1.48v.85h0a2,2,0,0,1,1.9-1v1.5a1.7,1.7,0,0,0-1.92,1.8v3h-1.48Z"/><path class="cls-1" d="M144.84,24.6a1.54,1.54,0,0,0,1.68,1.15c.6,0,1.42-.23,1.42-1.19,0-1.73-3.44-.4-3.44-2.71,0-.83.69-1.6,2-1.6,1.14,0,1.92.34,2.19,1.32l-.69.17a1.24,1.24,0,0,0-1.39-.88c-1.1,0-1.38.43-1.38,1,0,1.5,3.45.37,3.45,2.71,0,.95-.8,1.76-2.26,1.76a2.23,2.23,0,0,1-2.28-1.53Z"/><path class="cls-1" d="M150.65,21h-1.27v-.6h1.27V18.56c0-.87.6-1.19,1.43-1.19a1.63,1.63,0,0,1,.65.13v.69a1.26,1.26,0,0,0-.67-.14c-.5,0-.68.28-.68.86V20.4h1.27V21h-1.27v5.21h-.73Z"/><path class="cls-1" d="M68.8,29.69l3.35,8.62h-.89l-1-2.59h-3.8l-1,2.59h-.85l3.52-8.62ZM70,35l-1.6-4.25L66.77,35Z"/><path class="cls-1" d="M73.09,36.7a1.56,1.56,0,0,0,1.69,1.15c.6,0,1.42-.23,1.42-1.19,0-1.73-3.45-.4-3.45-2.71,0-.83.7-1.6,2-1.6s1.92.34,2.2,1.32l-.69.17a1.25,1.25,0,0,0-1.4-.88c-1.09,0-1.37.43-1.37,1,0,1.51,3.45.38,3.45,2.72,0,1-.8,1.76-2.26,1.76a2.23,2.23,0,0,1-2.28-1.54Z"/><path class="cls-1" d="M78.48,36.7a1.56,1.56,0,0,0,1.69,1.15c.6,0,1.42-.23,1.42-1.19,0-1.73-3.45-.4-3.45-2.71,0-.83.7-1.6,2-1.6,1.14,0,1.91.34,2.19,1.32l-.69.17a1.25,1.25,0,0,0-1.4-.88c-1.09,0-1.37.43-1.37,1,0,1.51,3.45.38,3.45,2.72,0,1-.8,1.76-2.26,1.76a2.23,2.23,0,0,1-2.28-1.54Z"/><path class="cls-1" d="M85.9,32.35c1.46,0,2.64,1.07,2.64,3s-1.18,3.05-2.64,3.05-2.63-1.06-2.63-3.05S84.45,32.35,85.9,32.35Zm-1.9,3c0,1.5.82,2.37,1.9,2.37s1.91-.87,1.91-2.37S87,33,85.9,33,84,33.91,84,35.4Z"/><path class="cls-1" d="M93.65,33.94a1.64,1.64,0,0,0-1.6-.91,2.09,2.09,0,0,0-2,2.37c0,1.6,1,2.37,1.9,2.37a1.75,1.75,0,0,0,1.61-.94l.74.18A2.41,2.41,0,0,1,92,38.45a2.79,2.79,0,0,1-2.63-3.05,2.79,2.79,0,0,1,2.8-3,2.37,2.37,0,0,1,2.25,1.44Z"/><path class="cls-1" d="M95.32,30.1h.73v1.14h-.73Zm0,2.4h.73v5.81h-.73Z"/><path class="cls-1" d="M102.66,38.38c-.9,0-1.45,0-1.52-1h0a2.15,2.15,0,0,1-2,1.09c-1,0-1.86-.47-1.86-1.54,0-1.23,1.08-1.59,2.09-1.85l1.78-.46V34c0-.75-.53-1.06-1.46-1.06a1.26,1.26,0,0,0-1.44,1.4l-.83-.14a2.1,2.1,0,0,1,2.3-1.87c2.16,0,2.16,1.25,2.16,1.82V37c0,.75.34.76.84.76Zm-3.52-.61a1.89,1.89,0,0,0,2-1.87v-.67l-2.1.58c-.58.16-1,.44-1,1.09S98.59,37.77,99.14,37.77Z"/><path class="cls-1" d="M102.75,32.5h1.19V30h.73V32.5h1.27v.6h-1.27v3.84c0,.43,0,.83.43.83a1.34,1.34,0,0,0,.8-.29v.73a2.33,2.33,0,0,1-1,.24.92.92,0,0,1-1-1V33.1h-1.19Z"/><path class="cls-1" d="M107.26,35.38v.16c0,1.29.57,2.23,1.87,2.23A1.87,1.87,0,0,0,111,36.54l.68.18a2.66,2.66,0,0,1-2.63,1.73c-1.46,0-2.64-1.06-2.64-3.05s1.18-3,2.64-3c1.72,0,2.57,1.31,2.63,3Zm3.62-.61c-.16-.84-.6-1.74-1.81-1.74a1.84,1.84,0,0,0-1.81,1.74Z"/><path class="cls-1" d="M116.68,37.52h0a1.79,1.79,0,0,1-1.7.93c-1.1,0-2.46-.82-2.46-3s1.11-3.13,2.44-3.13a1.89,1.89,0,0,1,1.72.91h0V29.69h.73v8.62h-.73Zm-1.69.25c1.36,0,1.73-1.23,1.73-2.37S116.43,33,115,33c-1.09,0-1.81.91-1.81,2.37S114,37.77,115,37.77Z"/><path class="cls-1" d="M65.6,41.79h.83v8.62H65.6Z"/><path class="cls-1" d="M72.07,46a1.64,1.64,0,0,0-1.6-.91,2.09,2.09,0,0,0-2,2.37c0,1.6,1,2.37,1.91,2.37a1.73,1.73,0,0,0,1.6-.94l.74.18a2.39,2.39,0,0,1-2.34,1.44,2.8,2.8,0,0,1-2.64-3,2.79,2.79,0,0,1,2.81-3,2.36,2.36,0,0,1,2.24,1.44Z"/><path class="cls-1" d="M74.21,47.48v.15c0,1.3.57,2.24,1.87,2.24A1.87,1.87,0,0,0,78,48.64l.68.18A2.66,2.66,0,0,1,76,50.55c-1.46,0-2.64-1.06-2.64-3s1.18-3,2.64-3c1.72,0,2.57,1.31,2.63,3Zm3.62-.61c-.16-.84-.6-1.74-1.81-1.74a1.83,1.83,0,0,0-1.81,1.74Z"/><path class="cls-1" d="M79.82,41.79h.73v8.62h-.73Z"/><path class="cls-1" d="M87.15,50.48c-.9,0-1.44,0-1.51-1h0a2.14,2.14,0,0,1-2,1.09c-.95,0-1.86-.47-1.86-1.54,0-1.23,1.08-1.59,2.09-1.85l1.79-.46v-.58c0-.75-.54-1.06-1.46-1.06a1.26,1.26,0,0,0-1.44,1.4l-.83-.14a2.09,2.09,0,0,1,2.29-1.87c2.17,0,2.17,1.25,2.17,1.82v2.84c0,.75.34.76.83.76Zm-3.52-.61a1.89,1.89,0,0,0,2-1.87v-.67l-2.1.58c-.59.16-1,.44-1,1.09S83.09,49.87,83.63,49.87Z"/><path class="cls-1" d="M87.92,44.6h.73v.84h0a1.86,1.86,0,0,1,1.74-1,1.84,1.84,0,0,1,2,2v3.94h-.73V46.69c0-1.17-.5-1.56-1.42-1.56A1.66,1.66,0,0,0,88.65,47v3.39h-.73Z"/><path class="cls-1" d="M97.8,49.62h0a1.79,1.79,0,0,1-1.7.93c-1.1,0-2.46-.82-2.46-3s1.11-3.12,2.45-3.12a1.88,1.88,0,0,1,1.71.91h0V41.79h.73v8.62H97.8Zm-1.69.25c1.36,0,1.73-1.23,1.73-2.37s-.29-2.37-1.68-2.37c-1.09,0-1.81.91-1.81,2.37S95.07,49.87,96.11,49.87Z"/><path class="cls-1" d="M100.06,42.2h.73v1.14h-.73Zm0,2.4h.73v5.81h-.73Z"/><path class="cls-1" d="M106.26,46a1.64,1.64,0,0,0-1.6-.91,2.09,2.09,0,0,0-2,2.37c0,1.6,1,2.37,1.91,2.37a1.73,1.73,0,0,0,1.6-.94l.74.18a2.39,2.39,0,0,1-2.34,1.44,2.8,2.8,0,0,1-2.64-3,2.79,2.79,0,0,1,2.81-3A2.36,2.36,0,0,1,107,45.89Z"/><path class="cls-1" d="M65.64,53.89H69.9a2.14,2.14,0,0,1,2.25,2.35c0,1.68-1.07,2.36-2.63,2.36H66.46v3.9h-.82Zm.82,4h2.75c1.41,0,2.11-.52,2.11-1.61,0-.51-.08-1.6-1.77-1.6H66.46Z"/><path class="cls-1" d="M74.74,56.55c1.46,0,2.64,1.07,2.64,3.05s-1.18,3-2.64,3-2.63-1.06-2.63-3S73.29,56.55,74.74,56.55Zm-1.9,3.05c0,1.5.82,2.37,1.9,2.37s1.91-.87,1.91-2.37-.82-2.37-1.91-2.37S72.84,58.11,72.84,59.6Z"/><path class="cls-1" d="M78.65,56.7h.73v.81h0a1.74,1.74,0,0,1,1.58-1,4.41,4.41,0,0,1,.52,0v.63a2.09,2.09,0,0,0-.49-.05c-1.13,0-1.64.82-1.64,2V62.5h-.73Z"/><path class="cls-1" d="M81.47,56.7h1.19V54.22h.73V56.7h1.26v.6H83.39v3.84c0,.43,0,.83.42.83a1.4,1.4,0,0,0,.81-.29v.73a2.37,2.37,0,0,1-1,.24.92.92,0,0,1-1-1V57.3H81.47Z"/><path class="cls-1" d="M85.76,60.9A1.53,1.53,0,0,0,87.44,62c.6,0,1.43-.23,1.43-1.18,0-1.73-3.45-.4-3.45-2.71,0-.84.69-1.6,2-1.6,1.14,0,1.92.34,2.2,1.32l-.7.17a1.23,1.23,0,0,0-1.39-.88c-1.1,0-1.37.43-1.37,1,0,1.5,3.44.38,3.44,2.71,0,1-.8,1.77-2.25,1.77a2.23,2.23,0,0,1-2.29-1.54Z"/><rect class="cls-2" width="166.32" height="80.02"/></g></g></svg>