<svg xmlns="http://www.w3.org/2000/svg" viewBox="0 0 166.32 80.02"><defs><style>.cls-1{fill:#887f79;}.cls-2{fill:none;}</style></defs><title>Asset 21</title><g id="Layer_2" data-name="Layer 2"><g id="Layer_1-2" data-name="Layer 1"><polygon class="cls-1" points="32.97 41.64 29.44 41.64 25.92 58.3 37.64 58.3 38.26 55.3 30.06 55.3 32.97 41.64"/><path class="cls-1" d="M44.42,38.65H40.9L38,41h2.38Zm-6.52,3L35.26,54h3.26l2.64-12.34Z"/><path class="cls-1" d="M58.44,49.75c.61-2.73-1-4.14-3.44-4.14a4.93,4.93,0,0,0-3.7,1.94,2.72,2.72,0,0,0-3-1.94,4.79,4.79,0,0,0-4,2.11h-.09L44.6,46H41.52L38.87,58.3h3.26l1.59-7.49a2.53,2.53,0,0,1,2.56-2.38c1.93,0,1.67,1.5,1.41,2.47l-1.5,7.31h3.26L51,50.81c.36-1.5,1.15-2.56,2.74-2.56,1,0,1.67.62,1.23,2.47l-1.59,7.49h3.26Z"/><path class="cls-1" d="M65.58,38.21H62.32l-.71,3.34H59.94l-.53,2.3h1.76l-1.59,7.49C59.23,52.92,59.5,54,62.32,54h.44a14.59,14.59,0,0,0,2-.09l.53-2.46c-.26,0-1,.08-1.23.08-1.32,0-1.32-.26-1.15-1l1.41-6.69h2l.53-2.3h-2Z"/><path class="cls-1" d="M63.28,58.3h3.18l1.32-6.43A3.26,3.26,0,0,1,71.39,49a2.9,2.9,0,0,1,.88.09L73,45.79c-.18,0-.44-.09-.62-.09-1.94,0-3,1.23-3.88,2.46H68.4l.44-2.11H65.75Z"/><path class="cls-1" d="M79.5,54.51a2.7,2.7,0,0,1-2.38,1.32c-2.64,0-2.38-2.11-2.29-3h8.46l.09-.62c1.23-5.64-1.94-6.79-4.32-6.79-5.38,0-6.87,4.76-7.23,6.26-1,5.11,1.24,6.7,4.68,6.7a6.86,6.86,0,0,0,6.25-4H79.5Zm-4.14-3.79a3.25,3.25,0,0,1,3.08-2.56c1.06,0,2.21.62,1.94,2.56Z"/><polygon class="cls-1" points="83.82 42.35 80.21 42.35 77.39 44.73 79.68 44.73 83.82 42.35"/><polygon class="cls-1" points="88.93 54.25 88.84 54.25 87.96 41.64 84.26 41.64 86.29 58.3 89.64 58.3 98.8 41.64 95.19 41.64 88.93 54.25"/><path class="cls-1" d="M99.16,58.3h3.26l1.32-6.43A3.26,3.26,0,0,1,107.35,49a2.9,2.9,0,0,1,.88.09l.71-3.26c-.18,0-.44-.09-.62-.09-1.94,0-3,1.23-3.88,2.46h-.08l.44-2.11h-3.09Z"/><path class="cls-1" d="M120.22,49.75c.62-2.73-1-4.14-3.44-4.14a5.14,5.14,0,0,0-4.14,2.11h-.09L112.9,46h-3.08L107.18,58.3h3.35l1.49-7a3.26,3.26,0,0,1,3.18-2.82c2,0,1.76,1.5,1.58,2.47l-1.58,7.49h3.26Z"/><path class="cls-1" d="M128.33,54.86A2.7,2.7,0,0,1,126,56.18c-2.65,0-2.38-2.11-2.29-3h8.46l.09-.62c1.23-5.64-1.94-6.78-4.32-6.78-5.38,0-6.88,4.75-7.23,6.25-1.06,5.11,1.23,6.7,4.67,6.7a6.86,6.86,0,0,0,6.26-4h-3.26Zm-4.06-3.79a3.25,3.25,0,0,1,3.09-2.55c1.06,0,2.2.61,1.94,2.55Z"/><path class="cls-1" d="M139.17,42.61h-3.26L135.2,46h-1.67L133,48.25h1.67l-1.58,7.49c-.36,1.59-.09,2.65,2.73,2.65h.44a7.91,7.91,0,0,0,1.5-.09l.53-2.47c-.27,0-.44.09-.71.09-1.32,0-1.32-.26-1.14-1l1.41-6.7h2L140.4,46h-2Z"/><path class="cls-1" d="M102.59,46H99.07l-2.91,2.38h2.38ZM96,49,93.34,61.3H96.6L99.24,49Z"/><polygon class="cls-1" points="83.73 33.01 96.95 33.01 96.95 18.73 98.01 18.73 98.01 34.06 82.67 34.06 82.67 19.87 69.45 19.87 69.45 34.06 68.4 34.06 68.4 18.73 83.73 18.73 83.73 33.01"/><path class="cls-1" d="M85.23,26.4a5,5,0,1,1,5,5,5,5,0,0,1-5-5"/><path class="cls-1" d="M71,26.4a5,5,0,1,1,5,5,5,5,0,0,1-5-5"/><rect class="cls-2" width="166.32" height="80.02"/></g></g></svg>