<svg xmlns="http://www.w3.org/2000/svg" viewBox="0 0 166.32 80.02"><defs><style>.cls-1{fill:#887f79;}.cls-2{fill:none;}</style></defs><title>Asset 17</title><g id="Layer_2" data-name="Layer 2"><g id="Layer_1-2" data-name="Layer 1"><g id="Layer_2-2" data-name="Layer 2"><g id="Layer_1-2-2" data-name="Layer 1-2"><path class="cls-1" d="M54.94,46.61l-2-6.09h1.22L55,43.28c.24.77.43,1.49.6,2.23h0c.17-.73.38-1.46.63-2.21l.88-2.78h1.19l-2.11,6.09Z"/><path class="cls-1" d="M60.09,40.51v6.1H59v-6.1Z"/><path class="cls-1" d="M60.73,43.07h.69V40.58a11.53,11.53,0,0,1,1.77-.14,3.72,3.72,0,0,1,2.49.7,2.85,2.85,0,0,1,.95,2.28,3.2,3.2,0,0,1-.95,2.43,4,4,0,0,1-2.76.84,10.69,10.69,0,0,1-1.5-.08V44h-.69Zm3.2.88h-1.4v1.83a4.24,4.24,0,0,0,.62,0,2.09,2.09,0,0,0,2.31-2.37,1.93,1.93,0,0,0-2.17-2.12,4.77,4.77,0,0,0-.76.06v1.71h1.4Z"/><path class="cls-1" d="M67.57,45.4a3.12,3.12,0,0,0,1.46.39c.72,0,1.11-.34,1.11-.84s-.3-.73-1.08-1c-1-.36-1.65-.89-1.65-1.77s.84-1.75,2.16-1.75a3.22,3.22,0,0,1,1.46.3l-.27.9a2.49,2.49,0,0,0-1.22-.29c-.71,0-1,.38-1,.73s.35.69,1.16,1c1.06.4,1.58.93,1.58,1.81S70.53,46.7,69,46.7a3.72,3.72,0,0,1-1.64-.38Z"/><path class="cls-1" d="M72.29,40.51H73.4v2.81h0a7.56,7.56,0,0,1,.44-.66l1.59-2.15h1.38l-2.1,2.6L77,46.61h-1.3l-1.73-2.79-.54.65v2.14H72.3Z"/><path class="cls-1" d="M78.66,40.51v6.1H77.54v-6.1Z"/><path class="cls-1" d="M79.94,40.6a8.79,8.79,0,0,1,1.7-.13,2.82,2.82,0,0,1,1.81.49A1.68,1.68,0,0,1,84,42.3a1.84,1.84,0,0,1-.52,1.39,2.7,2.7,0,0,1-1.93.65,3.27,3.27,0,0,1-.54,0v2.3H80ZM81,43.43a2,2,0,0,0,.54,0c.84,0,1.34-.41,1.34-1.12s-.47-1-1.24-1a3.45,3.45,0,0,0-.64,0Z"/><path class="cls-1" d="M86.16,41.45H84.42v-.94H89v.94H87.27v5.16H86.16Z"/><path class="cls-1" d="M90.2,44.88l-.53,1.73H88.53l2-6.09h1.41l2,6.09h-1.2l-.55-1.73ZM92,44l-.49-1.5c-.12-.37-.22-.79-.31-1.14h0c-.09.35-.18.78-.29,1.14L90.37,44Z"/><path class="cls-1" d="M94.73,40.6a10.47,10.47,0,0,1,1.68-.13,2.79,2.79,0,0,1,1.88.49,1.56,1.56,0,0,1,.53,1.22,1.62,1.62,0,0,1-1.11,1.52v0a1.55,1.55,0,0,1,.85,1.18,12.81,12.81,0,0,0,.49,1.71H97.9a9.08,9.08,0,0,1-.41-1.44c-.17-.8-.46-1.05-1.09-1.07h-.56v2.51h-1.1Zm1.1,2.69h.66c.75,0,1.22-.4,1.22-1s-.47-1-1.19-1a3.22,3.22,0,0,0-.69.06Z"/><path class="cls-1" d="M101.12,44.88l-.52,1.73H99.45l2-6.09h1.41l2,6.09h-1.18l-.55-1.73Zm1.75-.84-.49-1.5c-.12-.37-.22-.79-.31-1.14h0c-.09.35-.18.78-.29,1.14l-.47,1.5Zm.71-4.94-1.13,1.09h-.9l.8-1.09Z"/><path class="cls-1" d="M105,43.07h.68V40.58a11.76,11.76,0,0,1,1.78-.14,3.69,3.69,0,0,1,2.48.7,2.76,2.76,0,0,1,1,2.28,3.2,3.2,0,0,1-1,2.43,4,4,0,0,1-2.76.84,10.83,10.83,0,0,1-1.51-.08V44H105Zm3.2.88h-1.4v1.83a4.24,4.24,0,0,0,.62,0,2.1,2.1,0,0,0,2.31-2.37,1.93,1.93,0,0,0-2.17-2.12,4.77,4.77,0,0,0-.76.06v1.71h1.4Z"/><path class="cls-1" d="M115.75,39.1l-1.13,1.09h-.9l.8-1.09Zm-.89,1.41v6.1h-1.11v-6.1Z"/><path class="cls-1" d="M116.11,45.4a3.12,3.12,0,0,0,1.46.39c.72,0,1.12-.34,1.12-.84s-.31-.73-1.09-1c-1-.36-1.65-.89-1.65-1.77s.84-1.75,2.16-1.75a3.22,3.22,0,0,1,1.46.3l-.27.9a2.49,2.49,0,0,0-1.22-.29c-.7,0-1,.38-1,.73s.35.69,1.16,1c1.06.4,1.58.93,1.58,1.81s-.75,1.83-2.32,1.83a3.8,3.8,0,0,1-1.65-.38Z"/><path class="cls-1" d="M120.83,40.51h1.11v5.16h2.5v.93h-3.61Z"/><path class="cls-1" d="M126.51,44.88,126,46.61h-1.15l2-6.09h1.43l2,6.09H129l-.55-1.73Zm1.74-.84-.49-1.5c-.12-.37-.21-.79-.31-1.14h0c-.09.35-.18.78-.29,1.14l-.47,1.5Z"/><path class="cls-1" d="M131,46.61V40.52h1.26l1.58,2.61a16.24,16.24,0,0,1,1,2h0c-.07-.81-.1-1.6-.1-2.53V40.51h1v6.1h-1.14l-1.59-2.69a21,21,0,0,1-1.1-2.1h0c.05.79.06,1.59.06,2.59v2.18Z"/><path class="cls-1" d="M137.15,40.6a10.47,10.47,0,0,1,1.77-.13,3.78,3.78,0,0,1,2.49.7,2.8,2.8,0,0,1,1,2.25,3.22,3.22,0,0,1-1,2.43,4.1,4.1,0,0,1-2.76.83,10.69,10.69,0,0,1-1.5-.08Zm1.11,5.16c.2,0,.41,0,.61,0a2.1,2.1,0,0,0,2.31-2.34A1.94,1.94,0,0,0,139,41.34a3.21,3.21,0,0,0-.76.06Z"/><path class="cls-1" d="M143.29,45.4a3.2,3.2,0,0,0,1.48.39c.71,0,1.11-.34,1.11-.84s-.31-.73-1.08-1c-1-.36-1.65-.89-1.65-1.77s.83-1.75,2.15-1.75a3.16,3.16,0,0,1,1.46.3l-.25.9a2.49,2.49,0,0,0-1.22-.29c-.7,0-1,.38-1,.73s.35.69,1.16,1c1.06.4,1.58.93,1.58,1.81s-.73,1.83-2.32,1.83a3.72,3.72,0,0,1-1.64-.38Z"/><path class="cls-1" d="M19.3,31.68l8.11,8.58a10.23,10.23,0,0,1,2.78,7V61.16l-8-8.44a10.73,10.73,0,0,1-2.92-7.38Z"/><path class="cls-1" d="M42.22,31.68l-8.1,8.58a10.2,10.2,0,0,0-2.79,7V61.16l8-8.44a10.74,10.74,0,0,0,2.93-7.38Z"/><path class="cls-1" d="M53.79,50.22v3.44h-.47V50.22Z"/><path class="cls-1" d="M57.32,53.53a2.51,2.51,0,0,1-1,.19A1.71,1.71,0,0,1,54.39,52a1.83,1.83,0,0,1,2-1.81,2.35,2.35,0,0,1,.95.17l-.12.37a2,2,0,0,0-.81-.16A1.37,1.37,0,0,0,54.88,52a1.35,1.35,0,0,0,1.49,1.38,2.08,2.08,0,0,0,.85-.17Z"/><path class="cls-1" d="M59.88,52.05h-1.5v1.24h1.67v.37H57.92V50.22h2v.38H58.38v1.08h1.5Z"/><path class="cls-1" d="M60.66,50.22h.47v3.06h1.63v.38h-2.1Z"/><path class="cls-1" d="M63.9,52.56l-.4,1.1H63l1.3-3.44h.56l1.31,3.44h-.5l-.41-1.1Zm1.27-.35-.4-1c-.08-.22-.13-.4-.19-.58h0c0,.18-.1.36-.18.57l-.39,1Z"/><path class="cls-1" d="M66.71,53.66V50.22h.53L68.5,52a9.49,9.49,0,0,1,.67,1.1h0c0-.46-.05-.91-.05-1.36V50.23h.44v3.44H69.1L67.86,51.9c-.27-.4-.53-.8-.72-1.15h0c0,.43,0,.83,0,1.35v1.56Z"/><path class="cls-1" d="M70.4,50.27a7.85,7.85,0,0,1,1.08-.08,2.27,2.27,0,0,1,1.59.49,1.5,1.5,0,0,1,.49,1.18,1.82,1.82,0,0,1-.52,1.3,2.49,2.49,0,0,1-1.72.54c-.37,0-.66,0-.93,0Zm.46,3a2.54,2.54,0,0,0,.55,0c1.13,0,1.67-.6,1.67-1.46s-.52-1.32-1.58-1.32a2.72,2.72,0,0,0-.64.05Z"/><path class="cls-1" d="M78.06,53.53a2.51,2.51,0,0,1-1,.19A1.71,1.71,0,0,1,75.14,52a1.83,1.83,0,0,1,2-1.81,2.34,2.34,0,0,1,.94.17L78,50.7a2.05,2.05,0,0,0-.81-.16A1.36,1.36,0,0,0,75.63,52a1.34,1.34,0,0,0,1.48,1.38,2.05,2.05,0,0,0,.85-.17Z"/><path class="cls-1" d="M79.13,50.22v1.43H81V50.22h.47v3.44H81V52H79.13v1.62h-.47V50.22Z"/><path class="cls-1" d="M82.92,52.56l-.4,1.1H82l1.3-3.44h.57l1.31,3.44h-.5l-.42-1.1Zm1.27-.35-.39-1c-.08-.22-.14-.4-.2-.58h0c0,.18-.1.36-.17.57l-.4,1Z"/><path class="cls-1" d="M88.9,52.14c0-.49-.06-1.09-.06-1.53h0c-.13.41-.29.85-.49,1.34l-.66,1.69h-.37L86.71,52c-.18-.49-.32-.95-.43-1.36h0c0,.44,0,1-.08,1.57l-.1,1.48h-.44l.24-3.44h.62l.64,1.71c.16.41.28.8.38,1.15h0c.09-.33.24-.73.4-1.16l.68-1.7h.62l.22,3.44H89Z"/><path class="cls-1" d="M90.18,50.27a5.26,5.26,0,0,1,.89-.08,1.57,1.57,0,0,1,1,.24.74.74,0,0,1,.3.62.79.79,0,0,1-.6.75v0a.88.88,0,0,1,.72,1,.84.84,0,0,1-.3.52,1.87,1.87,0,0,1-1.27.32,6.3,6.3,0,0,1-.75,0Zm.46,1.41h.49c.52,0,.79-.25.79-.58s-.35-.56-.81-.56a2.38,2.38,0,0,0-.46,0Zm0,1.64a3.11,3.11,0,0,0,.43,0c.49,0,1-.15,1-.67s-.43-.66-1-.66h-.44Z"/><path class="cls-1" d="M95.12,52.05H93.63v1.24h1.66v.37H93.16V50.22h2v.38H93.63v1.08h1.49Z"/><path class="cls-1" d="M95.91,50.27a6,6,0,0,1,1-.08,1.61,1.61,0,0,1,1.07.29.88.88,0,0,1,.28.65.92.92,0,0,1-.68.88h0a.91.91,0,0,1,.52.67,6.47,6.47,0,0,0,.28,1h-.48a4.84,4.84,0,0,1-.25-.82c-.11-.47-.31-.66-.73-.67h-.51v1.49H95.9Zm.46,1.56h.55c.51,0,.82-.26.82-.65s-.37-.64-.85-.64a2.24,2.24,0,0,0-.52.05Z"/><path class="cls-1" d="M101.57,53.71a1.68,1.68,0,0,1-1.74-1.61V52a1.75,1.75,0,0,1,1.66-1.82h.13a1.68,1.68,0,0,1,1.75,1.6v.15a1.72,1.72,0,0,1-1.64,1.81h-.16Zm0-.36a1.42,1.42,0,0,0,0-2.83A1.31,1.31,0,0,0,100.32,52a1.28,1.28,0,0,0,1.27,1.39Z"/><path class="cls-1" d="M104,50.22h2v.38h-1.57v1.13h1.45v.38h-1.45v1.55H104Z"/><path class="cls-1" d="M110.59,53.53a2.49,2.49,0,0,1-1,.19A1.71,1.71,0,0,1,107.67,52a1.83,1.83,0,0,1,2-1.81,2.34,2.34,0,0,1,.94.17l-.12.37a2,2,0,0,0-.8-.16A1.36,1.36,0,0,0,108.16,52a1.34,1.34,0,0,0,1.48,1.38,2.08,2.08,0,0,0,.85-.17Z"/><path class="cls-1" d="M112.6,53.71a1.67,1.67,0,0,1-1.74-1.61.28.28,0,0,1,0-.13,1.74,1.74,0,0,1,1.66-1.82h.12a1.68,1.68,0,0,1,1.75,1.59v.16a1.72,1.72,0,0,1-1.63,1.81Zm0-.36A1.42,1.42,0,1,0,111.35,52a1.28,1.28,0,0,0,1.27,1.39Z"/><path class="cls-1" d="M118.18,52.14c0-.49-.06-1.09-.06-1.53h0c-.13.41-.3.85-.49,1.34L117,53.64h-.37L116,52c-.18-.49-.32-.95-.43-1.36h0c0,.44,0,1-.08,1.57l-.1,1.48h-.44l.24-3.44h.62l.64,1.71c.15.41.28.8.37,1.15h0c.1-.33.25-.73.41-1.16l.68-1.7h.61l.22,3.44h-.46Z"/><path class="cls-1" d="M122.63,52.14c0-.49-.06-1.09-.06-1.53h0c-.14.41-.3.85-.49,1.34l-.67,1.69H121L120.43,52c-.17-.49-.32-.95-.43-1.36h0c0,.44,0,1-.07,1.57l-.1,1.48h-.45l.24-3.44h.62l.65,1.71c.15.41.27.8.37,1.15h0c.09-.33.24-.73.4-1.16l.69-1.7H123l.22,3.44h-.46Z"/><path class="cls-1" d="M125.86,52.05h-1.49v1.24H126v.37h-2.13V50.22h2v.38h-1.58v1.08h1.5Z"/><path class="cls-1" d="M126.65,50.27a6,6,0,0,1,.95-.08,1.59,1.59,0,0,1,1.07.29.86.86,0,0,1,.29.65.92.92,0,0,1-.68.88h0a.91.91,0,0,1,.52.67,8.41,8.41,0,0,0,.28,1h-.48a4.84,4.84,0,0,1-.25-.82c-.11-.47-.3-.66-.73-.67h-.5v1.49h-.47Zm.46,1.56h.55c.51,0,.83-.26.83-.65s-.38-.64-.86-.64a2.29,2.29,0,0,0-.52.05Z"/><path class="cls-1" d="M132.34,53.53a2.54,2.54,0,0,1-1.05.19A1.71,1.71,0,0,1,129.41,52a1.83,1.83,0,0,1,2-1.81,2.35,2.35,0,0,1,.95.17l-.12.37a2.05,2.05,0,0,0-.81-.16A1.37,1.37,0,0,0,129.9,52a1.35,1.35,0,0,0,1.49,1.38,2.08,2.08,0,0,0,.85-.17Z"/><path class="cls-1" d="M134.89,52.05H133.4v1.24h1.66v.37h-2.13V50.22h2v.38h-1.58v1.08h1.49Z"/><path class="cls-1" d="M42.22,27.36V18.87l-8.1,8.58a10.15,10.15,0,0,0-2.79,7v7.7a12.32,12.32,0,0,1,2.21-3.24l7.06-7.47A5.93,5.93,0,0,0,42.22,27.36Z"/></g></g><rect class="cls-2" width="166.32" height="80.02"/></g></g></svg>