<svg xmlns="http://www.w3.org/2000/svg" viewBox="0 0 166.32 80.02"><defs><style>.cls-1{fill:#887f79;}.cls-2{fill:none;}</style></defs><title>Asset 18</title><g id="Layer_2" data-name="Layer 2"><g id="Layer_1-2" data-name="Layer 1"><path class="cls-1" d="M91.33,47.34l-5.28-6.59v6.59H82.31V27h3.74V39.21l5-6.38h4.47L89.68,40l6,7.34Z"/><path class="cls-1" d="M97,28.8a2.31,2.31,0,1,1,2.29,2.29A2.31,2.31,0,0,1,97,28.8Zm.43,4h3.74V47.34H97.39Z"/><path class="cls-1" d="M117.66,38.43v8.91h-3.75V38.9a2.69,2.69,0,0,0-2.87-3c-1.83,0-3.19,1.07-3.19,3.59v7.84h-3.74V32.83h3.74v1.63a4.93,4.93,0,0,1,4.32-2C115.25,32.42,117.66,34.57,117.66,38.43Z"/><path class="cls-1" d="M134.87,32.83V46.64c0,4.76-3.74,6.91-7.57,6.91-3.11,0-5.6-1.19-6.88-3.54l3.19-1.83c.61,1.13,1.57,2,3.8,2s3.8-1.28,3.8-3.57V45.08a5.54,5.54,0,0,1-4.64,2.2,7.43,7.43,0,0,1,0-14.86,5.54,5.54,0,0,1,4.64,2.21v-1.8Zm-3.66,7a4.06,4.06,0,1,0-4.06,4A3.87,3.87,0,0,0,131.21,39.85Z"/><path class="cls-1" d="M58.17,40.79H70.1c0-.23,0-.47,0-.71a7.66,7.66,0,0,0-15.32,0c0,.24,0,.48,0,.71Zm4.31-5.07A4.39,4.39,0,0,1,66.33,38H58.62A4.39,4.39,0,0,1,62.48,35.72Z"/><path class="cls-1" d="M66.15,42.44a4.36,4.36,0,0,1-7.34,0H55.19a7.66,7.66,0,0,0,14.57,0Z"/><path class="cls-1" d="M53,38.4v8.94H49.24V38.66c0-1.71-.87-2.75-2.44-2.75s-2.7,1.1-2.7,3.28v8.15H40.36V38.66c0-1.71-.87-2.75-2.44-2.75s-2.73,1.1-2.73,3.28v8.15H31.45V32.83h3.74v1.54a4.59,4.59,0,0,1,4-1.95,4.36,4.36,0,0,1,3.94,2.09,5,5,0,0,1,4.32-2.09C50.8,32.42,53,34.78,53,38.4Z"/><path class="cls-1" d="M80.28,32.54v4.18c-1.94-.23-4.41.64-4.41,3.68v6.94H72.13V32.83h3.74v2.5A4.46,4.46,0,0,1,80.28,32.54Z"/><rect class="cls-2" width="166.32" height="80.02"/></g></g></svg>