<svg xmlns="http://www.w3.org/2000/svg" viewBox="0 0 166.32 80.02"><defs><style>.cls-1{fill:#887f79;}.cls-2{fill:none;}</style></defs><title>Asset 20</title><g id="Layer_2" data-name="Layer 2"><g id="Layer_1-2" data-name="Layer 1"><path class="cls-1" d="M71,40.37v-.31c0-.12,0-.23,0-.34s0-.09,0-.14,0-.29,0-.44v0c0-.2,0-.41,0-.61s0-.37,0-.55a6,6,0,0,0-.06-.61c0-.19,0-.37-.07-.56s0-.39-.08-.58-.06-.36-.1-.54a3.82,3.82,0,0,0-.11-.57,4.37,4.37,0,0,0-.12-.52,3.41,3.41,0,0,0-.14-.55,4.84,4.84,0,0,0-.14-.51,5.52,5.52,0,0,0-.16-.54c0-.16-.11-.32-.17-.47s-.12-.36-.19-.54-.12-.3-.19-.45a4.61,4.61,0,0,0-.22-.51,4.54,4.54,0,0,0-.21-.45c-.07-.16-.15-.31-.23-.47a3.75,3.75,0,0,0-.24-.44l-.24-.43-.27-.44c-.08-.14-.17-.27-.26-.4s-.19-.29-.29-.43l-.28-.38c-.09-.14-.2-.27-.3-.4l-.29-.36c-.1-.13-.21-.25-.32-.37s-.2-.23-.31-.34-.21-.23-.32-.34-.21-.22-.32-.33l-.33-.31-.34-.31-.33-.3-.34-.28-.35-.28-.34-.25-.35-.26-.34-.24L62.16,23l-.34-.22-.35-.22-.35-.2-.35-.19-.35-.19c-.12-.06-.23-.13-.35-.18l-.35-.17-.34-.16L59,21.27l-.33-.14L58.36,21,58,20.85l-.32-.12-.33-.12L57,20.5l-.34-.11-.32-.1-.3-.1-.3-.08-.35-.1-.29-.07-.28-.07-.28-.07-.34-.08L54,19.66l-.27-.05-.25-.05-.25,0-.34-.06-.23,0-.23,0-.23,0-.21,0-.33,0-.2,0-.2,0-.18,0-.18,0-.16,0H50.6a6.2,6.2,0,0,0-1.68-.23,6,6,0,0,0-5.55,3.62l.18-.4A3.93,3.93,0,0,1,39.87,24h-.06a3.94,3.94,0,0,1-3.68-1.86h0a5.92,5.92,0,1,0,0,5.44v0a3.92,3.92,0,0,1,3.68-1.83h.06a4.09,4.09,0,0,1,3.5,1.52,6,6,0,0,0,5.55,3.62h.75l.14,0h.13l.14,0h0l.15,0,.16,0,.15,0,.16,0,.16,0,.08,0,.17,0,.17,0,.17,0,.18,0,.1,0,.18,0,.19.05.17,0,.13,0,.19.05.18.06.17,0,.15.05.18.06.18.07.17.06.16.06L54,32l.17.07.16.07.17.08.16.08.16.08.15.08.16.09.15.09.15.09.15.1.14.09.15.1.13.1.14.1.13.11.13.1.12.11.13.12.12.11a1.36,1.36,0,0,0,.12.12L57,34l.11.13.1.12.12.14.09.12.11.15.09.13.1.16.09.14.1.17a1.3,1.3,0,0,0,.08.17l.09.16.09.2a1,1,0,0,0,.07.15,1.09,1.09,0,0,0,.09.23l.06.16a2.25,2.25,0,0,0,.08.24l.06.2c0,.08,0,.16.07.25l.06.21a2.56,2.56,0,0,0,.05.27,2,2,0,0,1,0,.24c0,.1,0,.19.05.28s0,.18,0,.27,0,.21,0,.31a2.64,2.64,0,0,0,0,.28l0,.35c0,.09,0,.19,0,.28v0c0,.11,0,.23,0,.34v.7c0,.11,0,.22,0,.33s0,.22,0,.33l0,.33,0,.28c0,.11,0,.22,0,.33a2,2,0,0,0,0,.24l-.06.31c0,.07,0,.15,0,.22l-.06.28-.06.21c0,.08,0,.16-.07.24s0,.14-.07.21,0,.14-.07.21a1.67,1.67,0,0,0-.08.2c0,.06,0,.12-.08.19l-.09.2-.07.15a1.74,1.74,0,0,0-.1.19.83.83,0,0,0-.07.13l-.11.18-.08.13-.1.15-.11.15-.09.12a1.71,1.71,0,0,1-.11.14l-.09.12-.12.13-.1.1-.12.13-.11.1-.12.12-.12.1L56.3,47l-.12.1-.13.1-.13.1-.14.09-.14.09-.14.09-.14.09-.15.09-.15.08-.15.08-.15.08L54.6,48l-.16.08-.16.07-.16.07-.17.06-.15.06-.17.06-.18.07-.14,0-.18.06-.18,0-.17.05-.14,0-.18,0-.17,0-.18,0-.12,0-.17,0-.18,0-.17,0-.09,0-.16,0-.17,0-.16,0-.16,0h0l-.15,0-.15,0h-.14l-.14,0h-.59s-.07,0-.11,0h-.35v0h-.12a6,6,0,0,0-5.35,3.21,4,4,0,0,1-3.7,1.82h-.06a3.9,3.9,0,0,1-3.68-1.84v0a5.93,5.93,0,1,0,0,5.46h0A3.94,3.94,0,0,1,39.81,56h.06a4,4,0,0,1,3.7,1.87v0a6,6,0,0,0,5,3.22h2.13l.33,0,.18,0h.2l.2,0,.22,0,.21,0,.35,0,.22,0,.24,0,.25,0,.26,0a2,2,0,0,0,.34-.06l.26,0,.28-.05.28-.06.34-.07.29-.07.29-.08.3-.08a3.58,3.58,0,0,0,.35-.09l.31-.09.31-.1.32-.1a2.53,2.53,0,0,0,.36-.12l.32-.11.33-.12.35-.14.34-.13c.11,0,.23-.09.34-.15a3.68,3.68,0,0,0,.35-.15l.35-.16.34-.17.36-.18.35-.18.35-.2.35-.2.36-.22.35-.22.35-.24.35-.24.36-.26.34-.26.35-.28.33-.28c.12-.1.24-.2.35-.31l.32-.3.34-.33.32-.32.33-.36.3-.35c.11-.12.22-.25.32-.38s.2-.24.29-.37l.3-.39c.1-.13.19-.26.28-.4l.27-.41.27-.43a4.36,4.36,0,0,0,.24-.41q.15-.24.27-.48c.08-.14.15-.28.22-.43s.16-.32.24-.49.14-.3.2-.45a5.32,5.32,0,0,0,.21-.5c.07-.16.13-.32.19-.49s.12-.33.17-.5a3.27,3.27,0,0,0,.17-.53,4.13,4.13,0,0,0,.15-.5,5.12,5.12,0,0,0,.15-.56,3.81,3.81,0,0,0,.12-.51A3.75,3.75,0,0,0,70.5,45c0-.17.07-.35.1-.52s.07-.4.09-.6a4.86,4.86,0,0,0,.07-.55,4.09,4.09,0,0,0,.07-.6,5.44,5.44,0,0,0,0-.58,5.65,5.65,0,0,0,0-.59A5.07,5.07,0,0,0,71,41s0-.05,0-.07,0-.27,0-.41ZM42.9,24.88v0Z"/><path class="cls-1" d="M30.78,34a5.93,5.93,0,1,0,5.35,8.64v0a4,4,0,0,1,3.68-1.9h.06a4,4,0,0,1,3.68,1.88,6,6,0,0,0,5.35,3.23A5.92,5.92,0,1,0,48.9,34a6,6,0,0,0-5.35,3.24,4,4,0,0,1-3.68,1.87h-.06a3.94,3.94,0,0,1-3.68-1.89h0A6,6,0,0,0,30.78,34Z"/><path class="cls-1" d="M81.57,38.23V29.9a.61.61,0,0,1,.68-.67h3.19a4.83,4.83,0,1,1,0,9.66H82.25A.61.61,0,0,1,81.57,38.23ZM85.22,37a2.81,2.81,0,0,0,3-3,2.81,2.81,0,0,0-3-3H83.77v6Z"/><path class="cls-1" d="M90.69,38.13l3.23-8.37a.75.75,0,0,1,.77-.53h1a.75.75,0,0,1,.77.53l3.27,8.37c.17.46,0,.76-.52.76h-.9a.75.75,0,0,1-.77-.52L97,37.1H93.31l-.47,1.25a.74.74,0,0,1-.75.54h-.87C90.72,38.89,90.53,38.59,90.69,38.13Zm5.91-2.76-1.41-3.89-1.45,3.89Z"/><path class="cls-1" d="M107,29.9v.52a.6.6,0,0,1-.67.66H104.1v7.15a.59.59,0,0,1-.66.66h-.83a.59.59,0,0,1-.66-.66V31.08H99.74a.59.59,0,0,1-.66-.66V29.9a.6.6,0,0,1,.66-.67h6.6A.61.61,0,0,1,107,29.9Z"/><path class="cls-1" d="M114.09,29.9v.52a.61.61,0,0,1-.68.66h-2.23v7.15a.6.6,0,0,1-.66.66h-.83a.59.59,0,0,1-.66-.66V31.08h-2.21a.59.59,0,0,1-.66-.66V29.9a.6.6,0,0,1,.66-.67h6.59A.61.61,0,0,1,114.09,29.9Z"/><path class="cls-1" d="M113.73,38.13,117,29.76a.74.74,0,0,1,.77-.53h1a.76.76,0,0,1,.77.53l3.27,8.37c.17.46,0,.76-.52.76h-.9a.75.75,0,0,1-.77-.52l-.48-1.27h-3.73l-.47,1.25a.75.75,0,0,1-.76.54h-.87C113.76,38.89,113.56,38.59,113.73,38.13Zm5.9-2.76-1.4-3.89-1.45,3.89Z"/><path class="cls-1" d="M123.33,34.06A5.29,5.29,0,0,1,131.58,30a.6.6,0,0,1,.14.93l-.35.43c-.24.34-.55.34-.92.12a3.7,3.7,0,0,0-1.82-.48,3.08,3.08,0,1,0,0,6.15,3.81,3.81,0,0,0,1.82-.48c.37-.22.68-.22.92.12l.35.43c.25.36.23.66-.07.88a4.92,4.92,0,0,1-3,.95A5,5,0,0,1,123.33,34.06Z"/><path class="cls-1" d="M132.48,38.13l3.23-8.37a.74.74,0,0,1,.77-.53h1a.77.77,0,0,1,.77.53l3.27,8.37c.17.46,0,.76-.52.76h-.9a.75.75,0,0,1-.77-.52l-.49-1.27H135.1l-.47,1.25a.76.76,0,0,1-.76.54H133C132.51,38.89,132.31,38.59,132.48,38.13Zm5.9-2.76L137,31.48l-1.45,3.89Z"/><path class="cls-1" d="M81.6,49.05v-7.2a.37.37,0,0,1,.41-.41h.39a.37.37,0,0,1,.41.41v6.61h3.25a.38.38,0,0,1,.42.42v.17a.38.38,0,0,1-.42.41H82A.37.37,0,0,1,81.6,49.05Z"/><path class="cls-1" d="M86.88,49l2.77-7.21a.47.47,0,0,1,.48-.33h.66a.47.47,0,0,1,.48.33L94.06,49c.1.28,0,.48-.32.48h-.37a.48.48,0,0,1-.49-.33l-.49-1.31H88.56l-.5,1.31a.46.46,0,0,1-.48.33H87.2C86.89,49.46,86.77,49.26,86.88,49ZM92,46.83l-1.58-4.21L88.9,46.83Z"/><path class="cls-1" d="M101.32,47.32c0,1.29-1.08,2.14-2.69,2.14H95.79a.37.37,0,0,1-.41-.41v-7.2a.37.37,0,0,1,.41-.41h2.48c1.53,0,2.67.77,2.67,2.07a1.82,1.82,0,0,1-1.51,1.83A1.94,1.94,0,0,1,101.32,47.32Zm-4.73-4.89V45h1.22c1.36,0,1.88-.68,1.88-1.37s-.67-1.17-1.43-1.17Zm3.49,4.84c0-.71-.6-1.39-2-1.39H96.59v2.58h2C99.47,48.46,100.08,48,100.08,47.27Z"/><path class="cls-1" d="M102.23,48a.36.36,0,0,1,.28-.52l.33-.08c.25-.06.39,0,.52.28a1.91,1.91,0,0,0,1.69.88c1,0,1.67-.5,1.67-1.19s-.51-1-1.16-1.23l-1.19-.4c-1.52-.5-1.88-1.41-1.88-2.16a2.37,2.37,0,0,1,2.6-2.23,2.56,2.56,0,0,1,2.52,1.51.36.36,0,0,1-.27.52l-.29.09a.41.41,0,0,1-.53-.26,1.44,1.44,0,0,0-1.42-.78c-.76,0-1.39.41-1.39,1.12,0,.33.11.77,1,1.11l1.2.45a2.42,2.42,0,0,1,2,2.18c0,1.44-1.15,2.34-2.82,2.34A3,3,0,0,1,102.23,48Z"/><rect class="cls-2" width="166.32" height="80.02"/></g></g></svg>