<svg xmlns="http://www.w3.org/2000/svg" viewBox="0 0 166.32 80.02"><defs><style>.cls-1{fill:#887f79;}.cls-2{fill:none;}</style></defs><title>Asset 23</title><g id="Layer_2" data-name="Layer 2"><g id="Layer_1-2" data-name="Layer 1"><path class="cls-1" d="M42.85,53.71c-.1,0-.06-.1,0-.2L44,49.77s0-.12.1-.12h.24c.06,0,.09.08.1.12l1.18,3.74c0,.1.07.2,0,.2h-.25c-.09,0-.1-.05-.13-.14l-.4-1.17H43.63l-.4,1.17c0,.09,0,.14-.13.14ZM44.7,52l-.47-1.61h0L43.74,52Z"/><path class="cls-1" d="M48.22,51.88a.62.62,0,0,0-.68-.67.92.92,0,0,0-.79.74v1.59c0,.05,0,.17-.1.17h-.21c-.1,0-.09-.11-.09-.17V51c0-.06,0-.17.09-.17h.21c.1,0,.1.11.1.17v.21a1,1,0,0,1,.82-.42.93.93,0,0,1,1,1v1.73c0,.05,0,.17-.1.17h-.2c-.11,0-.1-.11-.1-.17Z"/><path class="cls-1" d="M49.57,54.93c-.19,0-.2-.09-.19-.19s0-.2.2-.2a.76.76,0,0,0,.77-.49v0l.12-.31s0,0,0,0L49.38,51a.11.11,0,0,1,.1-.15h.11a.18.18,0,0,1,.2.1l.89,2.27h0L51.56,51c0-.11.11-.1.2-.1h.1A.11.11,0,0,1,52,51l-.78,2-.48,1.22v0a1.08,1.08,0,0,1-1.13.69"/><path class="cls-1" d="M54.18,51.43l.36,1.49L55,51c0-.08.06-.11.19-.11h.1a.1.1,0,0,1,.11.12l-.65,2.56c0,.06,0,.18-.1.18h-.15c-.06,0-.1,0-.13-.15L54,52.09s0,0,0,0,0,0,0,0l-.36,1.47c0,.14-.07.15-.13.15H53.3s-.08-.12-.1-.18L52.55,51a.1.1,0,0,1,.11-.12h.1c.12,0,.17,0,.19.11l.47,2,.36-1.49c0-.08,0-.08.1-.08h.2c.05,0,.08,0,.1.08"/><path class="cls-1" d="M58,51.88a.62.62,0,0,0-.68-.67.94.94,0,0,0-.79.74v1.59c0,.05,0,.17-.1.17h-.2c-.1,0-.1-.11-.1-.17V49.82c0-.06,0-.17.1-.17h.2c.11,0,.1.12.1.17v1.41a1,1,0,0,1,.82-.42.93.93,0,0,1,1,1v1.73c0,.05,0,.17-.1.17h-.2c-.1,0-.1-.11-.1-.17Z"/><path class="cls-1" d="M59.28,52.28a1.31,1.31,0,0,1,1.21-1.47A1.12,1.12,0,0,1,61.62,52c0,.25,0,.3-.19.3H59.7v.08a.9.9,0,0,0,.82,1,.63.63,0,0,0,.65-.36c0-.08.07-.07.14-.07h.18c.08,0,.07,0,0,.12a1,1,0,0,1-1,.66,1.28,1.28,0,0,1-1.24-1.43m.44-.32h1.49a.71.71,0,0,0-.7-.79.85.85,0,0,0-.79.79"/><path class="cls-1" d="M64.56,51.75a.11.11,0,0,1-.12-.08.6.6,0,0,0-.65-.46A.92.92,0,0,0,63,52v1.59c0,.05,0,.17-.11.17h-.2c-.1,0-.09-.11-.09-.17V51c0-.06,0-.17.09-.17h.2c.11,0,.11.11.11.17v.21a1,1,0,0,1,.81-.42.93.93,0,0,1,1,.78.1.1,0,0,1-.07.1l-.22.06"/><path class="cls-1" d="M65.47,52.28a1.31,1.31,0,0,1,1.21-1.47A1.12,1.12,0,0,1,67.81,52c0,.25,0,.3-.19.3H65.89v.08a.9.9,0,0,0,.81,1,.64.64,0,0,0,.66-.36c0-.08.07-.07.13-.07h.19c.08,0,.07,0,0,.12a1,1,0,0,1-1,.66,1.28,1.28,0,0,1-1.23-1.43m.44-.32H67.4a.71.71,0,0,0-.7-.79.85.85,0,0,0-.79.79"/><path class="cls-1" d="M69.74,53.53s0,.18-.19.18h-.28c-.18,0-.18-.12-.18-.18v-.28c0-.06,0-.18.18-.18h.28c.19,0,.19.13.19.18Z"/><path class="cls-1" d="M101.36,52.75c0-.09,0-.17.11-.17h.23c.06,0,.08,0,.08.12,0,.38.3.65,1,.65a.76.76,0,0,0,.79-.71c0-.47-.27-.71-.88-.89-.83-.25-1.2-.54-1.2-1.1a1.13,1.13,0,0,1,1.23-1.06c.62,0,1.19.33,1.19.91,0,.08,0,.13-.09.13h-.23c-.1,0-.11,0-.11-.13,0-.42-.46-.52-.75-.52a.69.69,0,0,0-.78.65c0,.39.5.58.93.73.94.32,1.11.67,1.11,1.27a1.16,1.16,0,0,1-1.23,1.11c-1,0-1.36-.5-1.36-1"/><path class="cls-1" d="M106.58,53.71H105c-.06,0-.17,0-.17-.1v-.16c0-.11.12-.1.17-.1h.67V51.21h-.48c-.06,0-.17,0-.17-.1V51c0-.11.12-.1.17-.1h.78c.11,0,.1.11.1.17v2.33h.54s.16,0,.16.1v.16c0,.1-.1.1-.16.1M106,50.19c0,.06,0,.14-.14.14h-.2c-.15,0-.14-.08-.14-.14V50c0-.06,0-.14.14-.14h.2c.15,0,.14.09.14.14Z"/><path class="cls-1" d="M108,53.71h-.2c-.1,0-.09-.11-.09-.17V51c0-.06,0-.17.09-.17h.2c.11,0,.11.11.11.17v.21c.12-.23.24-.42.58-.42a.54.54,0,0,1,.5.44.71.71,0,0,1,.65-.44c.39,0,.58.41.58,1v1.73c0,.05,0,.17-.1.17h-.21c-.1,0-.09-.11-.09-.17V51.88c0-.42-.07-.67-.33-.67s-.43.21-.43.63v1.7c0,.06,0,.17-.1.17H109c-.1,0-.1-.11-.1-.17V51.88c0-.42-.06-.67-.33-.67s-.42.21-.42.63v1.7c0,.05,0,.17-.11.17"/><path class="cls-1" d="M111.91,53.36v1.26c0,.05,0,.17-.1.17h-.2c-.1,0-.09-.11-.09-.17V51c0-.1,0-.19.11-.19h.16c.14,0,.12.09.12.19v.12a1,1,0,0,1,.73-.35,1.09,1.09,0,0,1,1.08,1.13v.54a1.2,1.2,0,0,1-1.08,1.23.77.77,0,0,1-.73-.35m1.42-.92v-.37a.77.77,0,0,0-.73-.86.67.67,0,0,0-.69.61,4,4,0,0,0,0,.7c0,.32.21.82.69.82s.75-.58.75-.9"/><path class="cls-1" d="M116.13,53.71h-1.54c-.06,0-.17,0-.17-.1v-.16c0-.11.12-.1.17-.1h.67V50h-.48c-.06,0-.17,0-.17-.09v-.16c0-.1.12-.1.17-.1h.78c.11,0,.1.12.1.17v3.53h.47c.05,0,.16,0,.16.1v.16c0,.1-.1.1-.16.1"/><path class="cls-1" d="M117.19,52.28a1.31,1.31,0,0,1,1.21-1.47A1.12,1.12,0,0,1,119.53,52c0,.25,0,.3-.19.3h-1.73v.08a.9.9,0,0,0,.81,1,.64.64,0,0,0,.66-.36c0-.08.07-.07.13-.07h.19c.08,0,.07,0,0,.12a1,1,0,0,1-1,.66,1.28,1.28,0,0,1-1.23-1.43m.44-.32h1.49a.71.71,0,0,0-.7-.79.85.85,0,0,0-.79.79"/><path class="cls-1" d="M121.67,53.53s0,.18-.18.18h-.28c-.18,0-.18-.12-.18-.18v-.28c0-.06,0-.18.18-.18h.28c.19,0,.18.13.18.18Z"/><path class="cls-1" d="M25.09,53.68c-.41,0-.38-.33-.38-.69V37.82c0-.25,0-.69.38-.69H29c3.31,0,5.6,1.6,5.6,4.86v6.92c0,2-1.82,4.77-5.6,4.77ZM29,52.16a3.57,3.57,0,0,0,3.89-3.31V42c0-2.65-2-3.39-3.89-3.39H26.69c-.17,0-.28,0-.28.22v13c0,.24,0,.3.31.3Z"/><path class="cls-1" d="M61.62,30.16V37a5.13,5.13,0,1,1-10.26,0V30.16a5.13,5.13,0,0,1,10.26,0m-1.71,0a3.42,3.42,0,1,0-6.84,0V37a3.43,3.43,0,1,0,6.84,0Z"/><path class="cls-1" d="M79.76,53.68h-.91c-.42,0-.45-.33-.45-.69V37.82c0-.36,0-.69.45-.69h.91c.19,0,.35.17.35.5V44c0,.25.14.25.31.25h5.87c.17,0,.28,0,.28-.25V37.63c0-.33.16-.5.36-.5h.91c.41,0,.44.33.44.69V53c0,.36,0,.69-.44.69h-.91c-.2,0-.36-.17-.36-.5V46c0-.2-.11-.22-.28-.22h-5.9c-.17,0-.28,0-.28.22v7.22c0,.33-.16.5-.35.5"/><path class="cls-1" d="M115.36,30.16V37a5.13,5.13,0,1,1-10.26,0V30.16a5.13,5.13,0,0,1,10.26,0m-1.71,0a3.42,3.42,0,1,0-6.84,0V37a3.43,3.43,0,1,0,6.84,0Z"/><path class="cls-1" d="M133.48,53.68h-.91c-.41,0-.44-.33-.44-.69V37.82c0-.25,0-.69.38-.69h4.39a4.4,4.4,0,0,1,4.71,4.61,4.53,4.53,0,0,1-4.57,4.9h-2.93c-.16,0-.27,0-.27.23v6.31c0,.33-.17.5-.36.5m.66-8.55H137c2,0,2.89-1.6,2.89-3.34a3,3,0,0,0-3.2-3.14h-2.62c-.16,0-.27,0-.27.22v6c0,.25.14.25.3.25"/><path class="cls-1" d="M72.13,37.06a.84.84,0,0,0-1.08.47.81.81,0,1,0,1.08-.47Z"/><path class="cls-1" d="M69.53,32.38,70.12,31l3.43,1.46L73,33.84l.6.25.72-1.7a.33.33,0,0,0-.16-.44l-4-1.71a.35.35,0,0,0-.44.19l-.72,1.7Z"/><path class="cls-1" d="M66.64,31.15,64,37.51l9.2,3.91,2.7-6.36Zm3.23,4.46a.32.32,0,0,1-.22.12l-2.56.18-.15,0a.3.3,0,0,1-.19-.28L66.69,34a.36.36,0,0,1,.09-.24.35.35,0,0,1,.22-.12l2.56-.18a.32.32,0,0,1,.34.31L70,35.37A.36.36,0,0,1,69.87,35.61Zm3.27,2.8a1.46,1.46,0,1,1-.75-2A1.49,1.49,0,0,1,73.14,38.41Z"/><polygon class="cls-1" points="67.36 34.27 67.39 35.21 69.3 35.08 69.26 34.13 67.36 34.27"/><path class="cls-1" d="M100.25,34.35h0l0,0h0c.44-.48,1.22-1.83.94-2.1s-1.56.62-2,1.06h0L96.9,35.62,91.57,32l-.58.59L95.5,37l-1.7,1.73c-.37.38-2.32-.27-2.32-.27l-.25.25L92.55,40l-.48.49.24.23.88-.14,1.24,1.22.33-.34-.54-1h0l2.31-2.35,4.06,4,.58-.59-3.32-4.74ZM93,40a.46.46,0,0,1-.5-.44A.48.48,0,1,1,93,40Zm6.06-5.66.7-.71a.25.25,0,0,1,.35.35l-.69.71a.28.28,0,0,1-.16.07.31.31,0,0,1-.2-.07A.26.26,0,0,1,99.07,34.31Zm-1.39,1.41.69-.7a.26.26,0,0,1,.36,0,.25.25,0,0,1,0,.35l-.7.71a.25.25,0,0,1-.16.08.24.24,0,0,1-.19-.08A.24.24,0,0,1,97.68,35.72ZM95,35.58a.48.48,0,0,1,.44-.51.47.47,0,0,1,.51.45.48.48,0,1,1-1,.06Zm.94,2.62-.7.7a.25.25,0,0,1-.16.08.26.26,0,0,1-.19-.07.24.24,0,0,1,0-.35l.7-.71a.25.25,0,0,1,.35,0A.25.25,0,0,1,95.94,38.2Zm1.39-1.42-.69.71a.26.26,0,0,1-.16.07.23.23,0,0,1-.19-.07.25.25,0,0,1,0-.35l.7-.71a.25.25,0,0,1,.35.35ZM98,37.84a.47.47,0,0,1,.5.45.48.48,0,0,1-.44.51.49.49,0,0,1-.51-.45A.47.47,0,0,1,98,37.84Z"/><path class="cls-1" d="M119.91,40.88c.3.34.38.4.57.4s.27-.06.56-.4a2.09,2.09,0,0,1,3.48,0c.3.35.38.4.57.4s.27-.05.57-.4a2.23,2.23,0,0,1,1.68-.93,3.85,3.85,0,0,0-3.42-3.33c0-.47,0-.95,0-1.35a6.63,6.63,0,0,1,.82-2.25,3.46,3.46,0,0,1,.46,2.28h0a2.72,2.72,0,0,0,.38-.31,2.84,2.84,0,0,0,.82-1.72,3.49,3.49,0,0,1,1.34,1.19v0a2.64,2.64,0,0,0,.08-.49A2.82,2.82,0,0,0,125.64,31l0,0a2.8,2.8,0,0,0-4,0,2.2,2.2,0,0,0-.28.34.29.29,0,0,0,0,.09,3.47,3.47,0,0,1,1.85.24,2.8,2.8,0,0,0-1,1.93,3.17,3.17,0,0,0,0,.44.3.3,0,0,1,0,.08A3.47,3.47,0,0,1,124,33a6.1,6.1,0,0,0-.73,2.25c0,.39,0,.88,0,1.34a3.85,3.85,0,0,0-3.59,3.84,1.1,1.1,0,0,0,0,.18Z"/><path class="cls-1" d="M122.78,41.51c-.19,0-.27.05-.56.39l0,.06a9.29,9.29,0,0,0,1.31.09l-.13-.15C123.05,41.56,123,41.51,122.78,41.51Z"/><path class="cls-1" d="M129.71,41.72c-.41,0-.6-.2-.9-.55a1.68,1.68,0,0,0-2.82,0c-.3.35-.49.55-.9.55s-.6-.2-.9-.55a1.78,1.78,0,0,0-1.41-.77,1.76,1.76,0,0,0-1.4.77c-.31.35-.5.55-.9.55s-.6-.2-.9-.55a1.78,1.78,0,0,0-1.41-.77.33.33,0,0,0,0,.66c.41,0,.6.2.9.55a1.77,1.77,0,0,0,1.41.78,1.75,1.75,0,0,0,1.4-.78c.31-.35.5-.55.9-.55s.6.2.9.55a1.66,1.66,0,0,0,2.82,0c.3-.35.49-.55.9-.55s.6.2.9.55a1.77,1.77,0,0,0,1.41.78.34.34,0,0,0,0-.67Z"/><polygon class="cls-1" points="47.01 41.19 44.28 37.09 46.26 36.31 43.57 34.98 40.87 33.65 41.06 36.65 41.26 39.65 42.77 38.09 45.5 42.19 47.01 41.19"/><path class="cls-1" d="M42.83,33.57a.31.31,0,0,1-.25-.13.28.28,0,0,1,.08-.39L44.25,32a.28.28,0,0,1,.32.47L43,33.52a.34.34,0,0,1-.14,0"/><path class="cls-1" d="M38.14,36.55a.28.28,0,0,1-.24-.13A.28.28,0,0,1,38,36L39.57,35A.27.27,0,0,1,40,35a.28.28,0,0,1-.08.4L38.29,36.5a.25.25,0,0,1-.15,0"/><path class="cls-1" d="M41.88,32.64a.27.27,0,0,1-.26.08.28.28,0,0,1-.22-.33l.36-1.89a.28.28,0,0,1,.33-.23.29.29,0,0,1,.22.34L42,32.5a.27.27,0,0,1-.07.14"/><path class="cls-1" d="M40.43,32.52a.29.29,0,0,1-.13.25.28.28,0,0,1-.39-.08L38.82,31.1a.29.29,0,0,1,.48-.32l1.08,1.6a.24.24,0,0,1,0,.14"/><path class="cls-1" d="M39.72,33.55a.3.3,0,0,1,.09.27.29.29,0,0,1-.34.22l-1.89-.36a.29.29,0,0,1,.11-.56l1.89.36a.31.31,0,0,1,.14.07"/><rect class="cls-2" width="166.32" height="80.02"/></g></g></svg>